<?xml version="1.0" standalone="no"?>
<!DOCTYPE svg PUBLIC "-//W3C//DTD SVG 20010904//EN"
 "http://www.w3.org/TR/2001/REC-SVG-20010904/DTD/svg10.dtd">
<svg version="1.0" xmlns="http://www.w3.org/2000/svg"
 width="512.000000pt" height="512.000000pt" viewBox="0 0 512.000000 512.000000"
 preserveAspectRatio="xMidYMid meet">
<metadata>
Created by potrace 1.14, written by Peter Selinger 2001-2017
</metadata>
<g transform="translate(0.000000,512.000000) scale(0.100000,-0.100000)"
fill="#000000" stroke="none">
<path d="M2758 4252 c-4 -14 -14 -22 -27 -22 -15 0 -19 5 -15 18 5 14 3 14 -7
-2 -10 -16 -9 -21 5 -31 9 -7 16 -15 16 -19 0 -12 -19 -6 -37 12 -10 10 -31
19 -48 19 -16 1 -24 -1 -17 -4 21 -8 14 -32 -8 -26 -11 3 -20 1 -20 -5 0 -13
-35 -25 -74 -27 -16 0 -31 -6 -34 -13 -8 -26 -92 0 -92 29 0 17 20 9 21 -8 0
-15 2 -15 8 2 11 26 -5 56 -24 49 -8 -4 -15 -12 -15 -19 0 -21 -19 -28 -36
-14 -13 10 -17 10 -25 -2 -5 -8 -9 -20 -9 -26 0 -18 -29 -16 -36 2 -5 12 -10
13 -20 4 -8 -6 -14 -17 -14 -24 0 -8 -8 -11 -20 -8 -11 3 -18 9 -15 13 3 5 1
11 -5 15 -5 3 -10 -3 -10 -14 0 -21 -15 -25 -83 -24 -11 0 -16 -6 -13 -14 3
-7 1 -13 -5 -13 -6 0 -8 -9 -4 -19 4 -14 0 -23 -15 -31 -12 -6 -19 -17 -16
-25 7 -20 -31 -25 -49 -5 -13 15 -14 21 -2 49 13 30 15 31 28 15 11 -13 11
-18 2 -21 -15 -5 -17 -33 -3 -33 6 0 10 6 10 14 0 8 9 18 21 21 20 7 20 7 2
24 -10 10 -24 16 -30 13 -8 -2 -13 4 -13 13 0 16 -3 15 -19 -4 -18 -21 -20
-21 -30 -4 -6 10 -11 12 -11 5 0 -8 -9 -11 -25 -8 -24 5 -26 3 -29 -36 -1 -7
5 -12 12 -11 6 2 12 -4 12 -13 0 -8 -4 -12 -10 -9 -13 8 -13 -5 0 -25 9 -14
11 -13 14 9 2 16 16 25 16 11 0 -7 7 -22 17 -32 10 -11 12 -18 4 -18 -16 0
-10 -32 9 -47 12 -9 13 -14 3 -24 -11 -11 -13 -10 -13 0 0 9 -8 11 -21 8 -15
-4 -18 -2 -10 7 13 16 4 26 -21 26 -14 0 -18 6 -16 23 2 17 -3 23 -21 25 l-24
4 22 -30 c11 -17 18 -37 15 -46 -4 -10 3 -19 20 -27 14 -7 26 -16 26 -20 0 -4
3 -14 6 -23 4 -12 0 -16 -16 -16 -16 0 -20 4 -16 16 4 12 2 15 -9 11 -8 -4
-17 -2 -20 3 -3 4 1 11 7 13 9 4 8 6 -2 6 -9 1 -22 -5 -29 -11 -11 -10 -13
-10 -7 0 4 7 2 12 -6 12 -7 0 -21 -14 -30 -30 -9 -17 -22 -30 -28 -30 -16 0
-12 18 8 29 13 8 8 9 -18 5 -31 -5 -37 -2 -49 20 -8 14 -18 26 -23 26 -4 0 -8
5 -8 10 0 6 9 10 20 10 11 0 20 -7 20 -15 0 -17 25 -20 35 -5 3 6 -1 10 -9 10
-12 0 -14 7 -10 30 6 25 3 31 -20 40 -36 13 -36 13 -36 -10 0 -11 5 -20 10
-20 6 0 10 -4 10 -10 0 -5 -13 -10 -30 -10 -20 0 -30 5 -30 15 0 21 -16 19
-42 -7 -20 -20 -23 -21 -26 -5 -2 9 -8 17 -13 17 -12 0 -1 -43 12 -48 4 -2 5
-10 2 -19 -5 -12 -1 -14 14 -9 17 5 21 2 21 -19 0 -13 -4 -22 -9 -20 -4 3 -10
1 -14 -4 -8 -14 50 -42 72 -35 16 6 16 5 3 -9 -20 -20 -66 -27 -62 -9 4 22
-18 2 -28 -24 -6 -15 -15 -22 -25 -18 -10 4 -15 0 -15 -11 0 -11 5 -15 14 -12
10 4 12 0 8 -15 -6 -24 -44 -41 -54 -24 -4 6 -5 20 -2 30 5 14 2 18 -9 13 -8
-3 -19 -1 -25 5 -6 6 -12 6 -16 -1 -4 -6 -12 -11 -17 -11 -6 0 -7 5 -3 12 4 7
3 8 -4 4 -7 -4 -12 -14 -12 -22 0 -14 -2 -14 -16 0 -8 9 -12 20 -9 26 14 22
-15 8 -35 -17 -17 -22 -23 -25 -30 -13 -8 13 -12 12 -24 -5 -9 -11 -16 -23
-16 -27 0 -13 -17 -9 -33 7 -18 18 -31 7 -15 -12 7 -9 8 -17 2 -21 -5 -4 -9
-28 -9 -54 0 -27 -3 -48 -7 -48 -16 0 -7 -19 9 -23 14 -4 12 -5 -4 -6 -13 0
-23 4 -23 9 0 18 -32 11 -37 -8 -2 -10 -12 -23 -22 -29 -15 -10 -17 -8 -14 11
4 18 -1 25 -19 29 -34 10 -45 8 -28 -3 8 -5 10 -10 3 -10 -10 0 -33 -50 -33
-72 0 -5 15 -6 34 -3 22 5 36 3 41 -6 5 -8 4 -10 -4 -5 -6 4 -25 2 -41 -6 -21
-9 -29 -19 -28 -35 2 -13 8 -23 14 -23 6 0 14 -11 16 -25 3 -14 1 -25 -4 -25
-6 0 -8 -7 -4 -15 5 -14 -17 -21 -47 -16 -17 3 -18 -29 -2 -53 19 -29 11 -34
-16 -10 -17 15 -19 15 -34 0 -9 -9 -13 -20 -10 -26 3 -5 -1 -10 -10 -10 -19 0
-15 -22 5 -28 7 -3 10 0 6 6 -3 5 6 17 19 26 l26 17 -15 -34 c-7 -19 -17 -54
-21 -78 -5 -24 -10 -39 -12 -32 -6 15 -33 5 -33 -13 0 -7 -7 -17 -16 -22 -15
-8 -15 -10 0 -15 8 -3 18 -2 21 3 4 6 16 9 28 9 19 -1 19 -2 3 -6 -15 -4 -16
-7 -5 -14 10 -6 11 -9 1 -9 -9 0 -8 -7 4 -25 18 -28 37 -34 27 -8 -4 11 -3 14
5 9 14 -8 16 -36 3 -36 -5 0 -8 -11 -6 -25 3 -31 -16 -29 -30 3 -5 12 -13 22
-17 22 -9 0 -10 -9 -10 -70 1 -61 -28 -95 -86 -103 -23 -3 -40 -1 -37 3 3 5 0
12 -6 15 -15 10 -88 -63 -84 -84 2 -9 4 -21 4 -28 1 -7 7 -10 14 -7 8 3 19 -1
25 -8 8 -10 4 -13 -16 -15 -15 -1 -32 3 -37 7 -15 13 -39 -5 -32 -23 3 -9 1
-17 -5 -19 -7 -3 -8 -10 -4 -17 6 -10 11 -9 24 2 30 25 42 29 36 13 -3 -9 -12
-16 -20 -16 -8 0 -14 -3 -14 -7 0 -5 -20 -8 -45 -9 -25 0 -45 3 -45 8 0 4 -5
8 -11 8 -5 0 -7 -5 -3 -12 5 -8 2 -9 -9 -5 -12 4 -17 1 -17 -9 0 -11 -6 -15
-18 -12 -13 4 -18 -1 -19 -15 -2 -15 1 -17 10 -8 16 16 27 14 20 -6 -5 -13 -2
-15 11 -10 10 4 23 7 29 7 7 0 6 4 -3 10 -13 8 -12 10 3 10 9 0 17 5 17 10 0
18 28 10 33 -10 5 -20 -22 -36 -54 -32 -10 2 -19 -6 -22 -19 -4 -13 -10 -18
-18 -13 -9 5 -10 2 -6 -9 4 -12 1 -17 -11 -18 -10 0 -12 -3 -5 -6 10 -3 10 -9
0 -24 -10 -16 -9 -21 3 -29 12 -8 12 -10 -3 -16 -9 -3 -24 -4 -32 -1 -21 9
-28 -10 -8 -22 15 -8 15 -10 2 -11 -8 0 -20 5 -27 12 -8 8 -12 9 -12 1 0 -6
-3 -18 -6 -27 -4 -11 1 -14 21 -12 14 2 31 8 37 14 18 18 25 15 32 -14 5 -17
12 -24 21 -20 8 3 15 1 15 -4 0 -6 -9 -10 -19 -10 -14 0 -18 -5 -14 -20 4 -15
11 -19 24 -15 11 4 19 2 19 -4 0 -6 -8 -11 -18 -11 -11 0 -27 -15 -38 -36 -18
-33 -18 -36 -2 -48 10 -7 15 -16 11 -19 -3 -4 -3 -7 2 -7 14 0 47 44 36 48
-19 6 -1 22 24 22 13 0 27 5 31 12 5 7 15 2 32 -18 13 -16 26 -24 28 -18 3 6
18 8 35 6 26 -4 30 -8 24 -26 -4 -11 -7 -29 -8 -39 -1 -10 -8 -17 -17 -16 -50
5 -90 -22 -69 -47 6 -8 15 -11 20 -8 5 3 9 -2 9 -12 0 -9 8 -23 18 -30 14 -11
15 -15 3 -23 -7 -5 -11 -14 -7 -19 4 -6 -3 -16 -14 -22 -11 -6 -20 -17 -20
-25 0 -8 -4 -15 -9 -15 -6 0 -16 -12 -23 -27 -7 -16 -18 -27 -23 -26 -6 1 -14
-5 -18 -13 -5 -8 -21 -20 -35 -25 l-27 -11 26 -11 c21 -10 25 -16 19 -32 -5
-11 -9 -16 -9 -11 -1 5 -8 3 -16 -4 -8 -6 -19 -9 -25 -5 -16 10 -12 -22 6 -39
8 -9 12 -21 8 -27 -4 -8 0 -9 15 -4 15 5 21 2 21 -9 0 -18 15 -21 25 -6 3 6
15 10 26 10 10 0 19 5 19 11 0 16 31 38 53 39 9 0 17 5 17 11 0 5 -4 8 -9 5
-14 -9 -21 20 -8 33 6 6 19 11 29 11 10 0 21 6 24 14 3 8 15 11 30 8 27 -5 30
-12 12 -30 -9 -9 -7 -12 10 -12 15 0 20 4 15 15 -3 9 -2 15 3 14 19 -3 34 1
34 11 0 5 -7 7 -15 4 -8 -4 -15 -1 -15 4 0 18 17 23 43 11 19 -8 23 -16 19
-37 -3 -15 -10 -31 -16 -35 -7 -5 -6 -7 4 -6 31 3 40 -2 40 -21 0 -11 7 -20
15 -20 8 0 12 -6 9 -14 -8 -20 24 -28 35 -8 5 9 13 17 18 17 4 0 7 12 7 28 -1
15 2 27 7 27 5 0 9 -7 9 -16 0 -9 9 -23 21 -33 21 -16 20 -17 -15 -31 -27 -10
-35 -18 -31 -31 3 -10 1 -20 -5 -24 -19 -12 -10 -25 14 -19 13 3 26 2 29 -3 8
-12 -15 -40 -38 -46 -18 -4 -18 -5 3 -6 12 0 22 -7 22 -15 0 -8 7 -16 15 -20
8 -3 15 -1 15 5 0 6 5 7 10 4 13 -8 42 14 34 26 -3 5 9 9 26 9 16 0 39 6 51
12 17 11 22 10 30 -5 14 -24 26 -21 36 11 10 30 6 62 -8 62 -5 0 -9 6 -9 14 0
8 -6 16 -12 19 -7 2 -9 8 -5 13 5 5 13 1 18 -9 13 -22 20 -22 47 4 20 17 20
22 8 35 -8 7 -21 14 -28 14 -11 0 -11 -2 0 -9 9 -5 3 -8 -17 -7 -34 1 -42 15
-13 22 13 4 18 16 18 46 1 27 9 47 23 61 l22 22 27 -31 c33 -37 80 -44 107
-14 14 16 16 23 7 32 -17 17 -15 38 3 32 12 -5 12 -2 -1 25 -16 32 -28 38 -40
20 -12 -20 -23 13 -12 35 16 31 16 31 38 6 l20 -23 6 31 c7 34 38 52 57 33 13
-13 30 -15 22 -2 -7 12 24 22 52 17 18 -4 22 -1 20 17 -2 19 3 22 31 22 17 0
32 4 32 8 0 5 5 7 12 5 15 -5 22 -58 8 -58 -6 0 -8 5 -5 10 3 6 1 10 -5 10 -7
0 -10 -6 -8 -12 3 -7 20 -13 39 -13 19 0 37 -4 41 -10 5 -6 12 -5 20 3 9 9 8
12 -7 13 -11 1 -27 1 -35 0 -11 -1 -11 1 3 9 23 15 22 25 -5 38 -21 9 -21 10
7 7 17 -1 36 -3 43 -4 10 -1 9 -5 -3 -17 -14 -15 -14 -17 2 -29 10 -7 22 -11
27 -8 5 4 15 -2 23 -12 7 -11 13 -14 13 -8 0 6 3 18 6 27 4 12 0 16 -15 16
-22 0 -28 14 -11 25 6 3 10 2 10 -3 0 -5 12 -7 28 -5 21 4 24 2 12 -6 -8 -6
-10 -11 -5 -11 15 0 6 -71 -11 -87 -7 -7 -15 -13 -19 -13 -9 0 -27 -19 -55
-60 -39 -55 -123 -153 -106 -122 4 6 2 12 -3 12 -6 0 -11 7 -11 15 0 8 7 15
15 15 8 0 15 5 15 11 0 6 7 9 15 5 8 -3 15 -1 15 4 0 6 -5 10 -11 10 -6 0 -9
7 -5 15 4 11 -1 14 -19 13 -14 -1 -25 -6 -25 -11 0 -5 -7 -15 -15 -23 -8 -9
-15 -27 -15 -40 0 -30 -24 -80 -45 -91 -8 -5 -15 -24 -17 -43 -1 -20 -14 -50
-29 -70 -23 -29 -27 -44 -26 -87 2 -46 8 -60 20 -50 2 1 11 -6 21 -15 23 -24
31 -23 51 8 13 20 15 32 8 48 -11 22 -7 46 7 46 5 0 12 -10 16 -22 7 -25 28
-48 42 -48 5 0 18 8 30 18 24 21 23 49 -1 67 -9 7 -17 21 -18 31 0 18 -1 18
-9 -1 -7 -17 -9 -17 -9 -2 -1 9 -5 17 -10 17 -6 0 -6 12 -1 29 4 15 6 40 3 55
-5 24 -2 26 26 26 17 0 31 5 31 10 0 6 16 10 35 10 23 0 35 5 35 13 0 21 -12
28 -27 16 -10 -9 -13 -7 -13 9 0 11 -6 22 -12 25 -10 3 -9 9 4 22 15 17 16 17
15 0 -1 -10 8 -21 20 -26 32 -12 42 26 14 52 -20 18 -20 21 -5 44 29 44 165
138 139 95 -3 -5 -3 -15 1 -21 4 -7 13 2 23 22 19 40 50 48 87 24 28 -18 103
-97 124 -131 13 -21 12 -25 -6 -46 -34 -38 -37 -48 -14 -48 13 0 19 4 14 11
-4 7 1 7 16 -1 13 -7 19 -17 16 -27 -3 -8 -6 -17 -6 -19 0 -3 -5 -2 -11 2 -8
5 -10 -1 -7 -20 4 -21 3 -24 -8 -15 -11 9 -14 9 -14 0 0 -20 29 -24 47 -6 14
14 18 15 21 4 10 -39 25 -56 44 -51 16 4 19 10 14 37 -5 23 -2 34 7 38 20 7
69 -16 102 -50 17 -16 43 -33 59 -37 22 -5 27 -11 23 -26 -3 -11 -1 -20 4 -20
5 0 9 5 9 10 0 18 22 10 27 -10 3 -11 10 -20 15 -20 5 0 16 -17 25 -37 13 -32
16 -93 17 -370 l1 -333 103 0 104 0 -5 97 c-3 54 -10 134 -16 178 -17 112 -20
600 -4 616 9 9 13 0 19 -40 4 -28 10 -51 15 -51 11 0 39 54 39 76 0 12 5 14
18 9 31 -14 82 -18 82 -6 0 6 -5 11 -12 11 -9 0 -9 3 1 12 10 11 15 9 24 -7
16 -29 16 -53 0 -59 -10 -4 -11 -11 -5 -23 11 -19 49 -25 56 -8 6 18 66 17 66
-1 0 -14 10 -18 40 -15 11 1 11 -1 -2 -9 -29 -18 -21 -30 15 -23 27 5 30 4 20
-8 -16 -20 -5 -67 19 -75 12 -3 17 -12 14 -20 -4 -11 1 -13 22 -8 38 9 38 11
14 37 -29 31 -28 47 3 47 28 0 33 21 10 40 -17 14 -20 50 -5 50 6 0 10 -4 10
-10 0 -5 16 -14 36 -19 32 -9 40 -7 60 12 26 25 22 42 -7 27 -18 -10 -19 -8
-13 14 4 17 1 27 -13 35 -10 6 -13 11 -7 11 7 0 15 12 19 27 6 26 8 26 19 10
21 -28 39 -21 33 12 -4 20 -2 31 8 35 10 4 15 21 16 53 1 47 1 47 13 20 7 -15
16 -24 20 -20 4 5 13 8 19 8 7 0 11 10 9 22 -3 23 13 39 23 23 5 -8 11 -7 21
1 8 7 14 7 14 1 0 -5 -7 -15 -15 -22 -8 -7 -12 -16 -9 -21 8 -14 24 -11 24 5
0 16 24 28 43 20 9 -3 13 5 13 26 0 16 -3 30 -8 30 -10 0 -6 23 5 31 4 3 -8
10 -28 16 -20 6 -35 7 -35 2 0 -5 5 -9 10 -9 6 0 10 -5 10 -12 0 -9 -3 -9 -12
0 -16 16 -28 15 -28 -3 0 -8 -4 -15 -9 -15 -5 0 -11 7 -15 15 -3 9 0 15 9 15
8 0 15 9 15 21 0 11 5 29 10 40 9 15 7 21 -5 25 -8 3 -15 12 -15 18 0 7 -16
27 -35 45 -27 24 -35 39 -34 64 2 31 2 31 6 4 3 -19 9 -27 18 -23 8 3 17 1 20
-4 4 -6 17 -10 31 -10 30 0 32 25 4 40 -12 6 -18 16 -13 23 5 8 8 8 11 -1 7
-23 18 -12 32 35 7 26 15 42 18 35 2 -7 10 -12 17 -12 8 0 17 -9 20 -20 5 -15
14 -20 33 -18 17 2 26 -1 24 -9 -1 -7 7 -13 17 -13 17 0 18 -3 8 -25 -9 -20
-17 -24 -34 -20 -21 5 -25 0 -22 -22 1 -5 6 -7 11 -5 6 2 8 -6 5 -17 -6 -25
16 -45 43 -38 11 3 23 1 26 -4 3 -5 -2 -9 -11 -9 -9 0 -13 -4 -10 -10 7 -12
55 -14 55 -2 0 5 13 7 29 4 l28 -4 -3 57 c-3 54 -2 57 19 51 17 -4 25 1 34 21
16 33 10 39 -21 25 -20 -9 -27 -7 -40 7 -9 10 -16 24 -17 32 0 10 -2 9 -7 -3
-5 -13 -11 -15 -22 -8 -13 9 -13 11 0 20 12 8 11 10 -7 10 -18 0 -23 6 -23 28
0 21 -2 24 -10 12 -7 -12 -12 -12 -22 -2 -14 14 -3 29 28 34 13 2 31 -8 49
-27 17 -18 29 -25 32 -18 2 7 11 9 19 6 19 -7 8 -23 -17 -23 -11 0 -17 -5 -14
-10 3 -6 18 -8 32 -5 20 3 23 1 15 -7 -17 -17 -15 -27 7 -25 16 1 19 8 18 37
-2 25 2 37 11 37 7 0 11 -6 8 -14 -7 -17 15 -126 27 -134 5 -3 8 -9 8 -13 -1
-3 0 -5 2 -3 9 6 37 -34 37 -52 0 -12 5 -21 11 -21 7 0 9 11 6 29 -8 37 30 79
53 58 9 -8 11 -8 6 0 -3 6 1 16 10 21 18 10 11 32 -10 32 -8 0 -26 16 -40 35
-15 20 -32 33 -37 29 -5 -3 -8 8 -7 27 2 21 9 34 20 37 23 6 23 21 1 29 -14 5
-9 9 17 15 27 5 38 3 47 -9 20 -26 29 -5 11 26 -10 18 -12 34 -7 42 7 11 9 10
9 -3 0 -27 30 -22 31 5 1 16 2 18 6 5 2 -10 9 -18 14 -18 6 0 7 -14 4 -33 -5
-25 -2 -39 10 -51 20 -19 13 -46 -11 -46 -10 0 -14 -5 -10 -15 3 -8 1 -15 -4
-15 -6 0 -10 -5 -10 -11 0 -6 8 -8 19 -4 11 3 23 0 27 -6 5 -9 10 -7 19 5 11
14 13 15 19 1 3 -8 1 -15 -4 -15 -6 0 -10 -15 -10 -33 0 -22 7 -36 21 -45 28
-18 43 -3 44 41 1 32 24 46 33 20 2 -7 -1 -13 -7 -13 -6 0 -11 -5 -11 -10 0
-6 8 -5 19 2 15 9 17 16 10 30 -7 13 -6 23 6 34 8 8 15 19 15 24 0 4 7 11 16
14 11 4 15 2 11 -8 -5 -13 14 -28 38 -30 6 -1 10 -6 10 -13 0 -6 3 -14 7 -18
4 -4 4 -13 1 -21 -3 -8 0 -14 6 -14 7 0 14 7 17 15 4 8 12 15 20 15 7 0 11 6
8 14 -3 8 0 17 5 21 16 9 4 25 -14 19 -10 -4 -12 0 -8 15 4 17 9 18 28 9 14
-6 21 -16 18 -24 -4 -12 0 -12 22 -4 35 13 34 14 45 -15 8 -21 14 -25 40 -20
16 3 30 1 30 -4 0 -4 11 -8 25 -8 15 0 24 4 22 11 -2 6 -13 9 -23 8 -10 -2
-16 0 -11 4 4 4 -1 16 -10 27 -10 11 -12 17 -6 13 9 -5 11 -2 7 9 -5 12 -14
14 -35 10 -32 -7 -38 9 -19 46 14 25 32 24 49 -2 10 -18 15 -19 22 -8 8 12 11
12 20 -1 8 -11 12 -12 16 -2 2 6 11 12 19 12 8 0 11 6 8 15 -4 8 -10 13 -14
10 -4 -3 -10 8 -13 23 -3 15 -1 30 5 33 6 4 6 9 1 12 -11 7 -28 -3 -36 -23 -4
-8 -6 2 -4 23 2 26 -1 37 -11 37 -7 0 -10 5 -7 11 4 6 14 8 22 4 13 -4 14 -3
3 10 -7 8 -21 15 -32 15 -12 0 -18 5 -15 13 2 6 10 11 16 9 15 -3 14 10 -3 44
-16 30 -13 44 10 44 17 0 19 -16 2 -24 -7 -3 -3 -3 10 0 12 3 22 1 22 -5 0 -6
-7 -11 -15 -11 -8 0 -15 -4 -15 -9 0 -5 7 -11 15 -15 8 -3 15 -2 15 2 0 4 13
15 28 24 20 12 32 14 39 7 13 -13 28 25 17 42 -4 8 -3 9 4 5 7 -4 12 -1 12 9
0 9 -4 13 -10 10 -5 -3 -11 2 -12 12 -1 10 -2 25 -3 33 -3 37 -17 71 -28 69
-33 -4 -41 1 -22 15 10 7 16 20 12 28 -3 9 0 21 6 27 8 8 8 14 0 22 -7 7 -15
6 -26 -5 -21 -21 -27 -20 -27 3 0 17 -5 19 -35 14 -31 -5 -35 -3 -29 12 5 13
4 16 -4 11 -8 -5 -12 0 -12 14 0 12 -4 19 -8 16 -9 -5 -36 36 -38 58 0 6 -2
19 -2 29 -1 10 -6 16 -11 13 -5 -3 -8 9 -7 27 1 22 -4 32 -14 33 -8 1 -21 2
-27 3 -7 0 -13 14 -13 30 0 38 37 51 50 16 5 -12 22 -29 38 -38 28 -13 29 -13
24 5 -2 11 -15 25 -28 30 -19 9 -21 14 -13 25 10 12 6 17 -13 14 -4 0 -12 8
-18 19 -6 11 -15 18 -21 15 -5 -4 -9 5 -9 19 0 20 5 26 23 26 12 0 17 4 12 8
-17 12 -17 55 1 48 8 -3 14 -1 14 4 0 14 27 12 34 -2 4 -7 5 -4 2 8 -2 12 1
28 5 37 8 13 5 15 -16 11 -23 -4 -25 -2 -16 14 13 25 3 35 -16 17 -11 -12 -19
-12 -35 -4 -27 14 -31 7 -15 -24 8 -15 17 -24 20 -20 4 3 7 2 7 -4 0 -12 -78
-68 -85 -61 -10 10 7 38 23 38 12 0 13 3 4 12 -9 9 -15 9 -24 0 -17 -17 -28
-15 -28 6 0 14 -4 12 -20 -8 -18 -23 -20 -23 -21 -5 0 11 -3 14 -6 7 -2 -6 -9
-10 -14 -6 -5 3 -9 0 -9 -5 0 -16 -36 -13 -50 4 -20 24 -55 18 -68 -10 -8 -18
-16 -23 -29 -18 -16 6 -16 5 -4 -10 16 -20 14 -24 -14 -29 -11 -1 -20 2 -20 7
-1 16 -15 35 -26 35 -6 0 -8 -4 -5 -9 3 -4 -4 -17 -15 -27 -21 -19 -21 -19
-15 13 6 24 3 34 -10 41 -9 5 -14 15 -10 21 4 6 12 9 17 6 5 -4 9 3 9 14 0 11
-7 24 -15 29 -13 7 -14 14 -6 35 10 26 -2 40 -12 15 -3 -8 -6 -7 -6 4 -1 9
-10 19 -20 23 -13 4 -17 12 -14 25 6 23 33 49 33 31 0 -6 -5 -11 -12 -11 -9 0
-9 -3 -1 -11 17 -17 28 -4 26 33 -1 18 -2 39 -2 47 -1 11 -5 11 -19 -2 -10
-10 -22 -14 -25 -10 -4 3 5 15 20 25 l28 18 -42 -6 c-36 -5 -43 -4 -43 10 0
16 -14 20 -55 17 -11 -1 -31 8 -43 19 -13 12 -30 19 -38 16 -17 -7 -17 -4 -3
28 10 21 14 23 30 13 10 -6 21 -9 24 -6 9 10 -7 40 -19 36 -14 -5 -36 17 -36
37 0 9 9 21 20 28 23 15 26 33 7 45 -12 7 -30 43 -27 52 2 5 -31 25 -45 27 -5
0 -16 2 -22 2 -15 2 -18 32 -3 32 6 0 10 -8 10 -17 1 -16 2 -15 12 2 6 11 15
22 19 25 12 8 -1 51 -15 49 -24 -3 -37 1 -31 10 6 12 -31 25 -45 16 -5 -3 -7
0 -4 8 3 9 -3 16 -15 20 -14 3 -21 0 -21 -8 0 -25 -20 -27 -29 -3 -7 15 -10
18 -10 7 -1 -18 -30 -34 -40 -23 -3 4 0 9 7 11 17 7 15 33 -4 33 -8 0 -12 -4
-9 -10 3 -5 2 -10 -3 -10 -19 0 -21 14 -6 31 16 17 15 18 -12 10 -16 -5 -45
-18 -65 -29 -36 -20 -37 -20 -32 -1 3 12 11 18 19 15 17 -7 19 10 2 18 -7 3
-3 3 8 1 12 -3 28 1 36 8 7 8 20 16 28 20 25 9 -20 8 -65 -3 -32 -7 -42 -6
-51 5 -6 8 -16 15 -23 15 -9 0 -9 5 -1 21 9 15 15 18 25 9 8 -7 16 -7 19 -2 3
6 -2 13 -11 16 -23 9 -69 -27 -65 -50 2 -14 0 -15 -6 -6 -5 7 -7 23 -5 35 3
16 -3 25 -23 34 -15 7 -30 10 -33 7 -5 -5 10 -17 34 -28 6 -3 1 -13 -10 -23
-11 -10 -26 -29 -32 -43 -12 -24 -12 -23 -9 13 4 44 -15 50 -58 16 -27 -22
-72 -18 -63 5 4 9 -5 12 -26 12 -19 -1 -32 4 -33 12 -3 25 -4 27 -12 15 -4 -7
-26 -14 -49 -15 -25 -2 -39 -7 -36 -14 2 -6 -3 -14 -12 -18 -9 -3 -13 -2 -10
4 3 6 1 10 -4 10 -6 0 -11 5 -11 11 0 5 4 8 9 5 4 -3 6 6 3 19 -3 16 -11 25
-23 25 -11 0 -19 5 -19 11 0 7 -9 9 -24 5 -15 -4 -26 -1 -28 6 -3 7 -7 2 -10
-10z m18 -27 c-21 -16 -32 -13 -21 4 3 6 14 11 23 11 15 -1 15 -2 -2 -15z m60
0 c19 -14 19 -14 -2 -9 -14 4 -24 -1 -31 -18 -9 -17 -12 -18 -12 -6 -1 21 9
48 18 48 4 0 16 -7 27 -15z m-552 -83 c3 -5 -1 -9 -9 -9 -8 0 -15 4 -15 9 0 4
4 8 9 8 6 0 12 -4 15 -8z m1006 -40 c0 -15 -2 -15 -10 -2 -13 20 -13 33 0 25
6 -3 10 -14 10 -23z m-60 4 c0 -2 -9 -6 -20 -9 -11 -3 -18 -1 -14 4 5 9 34 13
34 5z m-118 -48 c-9 -9 -12 -7 -12 12 0 19 3 21 12 12 9 -9 9 -15 0 -24z m67
1 c-16 -10 -23 -4 -14 10 3 6 11 8 17 5 6 -4 5 -9 -3 -15z m-796 -50 c-6 -23
-11 -24 -35 -2 -25 23 -22 30 11 25 22 -3 28 -8 24 -23z m1171 -21 c-1 -13 -3
-27 -3 -33 -1 -5 -8 -2 -16 8 -15 21 -10 47 9 47 7 0 12 -10 10 -22z m-1455
-3 c2 -2 0 -12 -3 -22 -6 -15 -9 -15 -16 -3 -8 12 -10 12 -16 -3 -6 -17 -7
-17 -19 0 -19 26 -7 46 24 38 14 -4 28 -8 30 -10z m-89 -29 c0 -3 -4 -8 -10
-11 -5 -3 -10 -1 -10 4 0 6 5 11 10 11 6 0 10 -2 10 -4z m480 -10 c0 -3 -4 -8
-10 -11 -5 -3 -10 -1 -10 4 0 6 5 11 10 11 6 0 10 -2 10 -4z m101 -10 c5 3 9
1 9 -5 0 -5 -5 -13 -10 -16 -8 -5 -7 -11 0 -20 12 -14 6 -35 -10 -35 -5 0 -17
17 -26 38 -10 20 -19 40 -21 44 -2 5 8 3 22 -2 15 -6 31 -8 36 -4z m-306 -6
c3 -5 18 -10 32 -10 34 0 24 -10 -13 -14 -16 -2 -33 -4 -38 -5 -4 0 -5 -12 -2
-25 4 -18 1 -25 -15 -29 -12 -3 -18 -10 -14 -16 4 -7 -4 -11 -22 -10 -16 0
-22 3 -13 6 25 10 38 28 51 71 12 42 22 51 34 32z m-231 -34 c-7 -19 -25 -17
-32 4 -3 7 0 10 7 6 6 -4 11 0 11 10 0 13 3 15 10 8 6 -6 8 -18 4 -28z m408
12 c-9 -9 -15 -9 -24 0 -9 9 -7 12 12 12 19 0 21 -3 12 -12z m86 -47 c-2 -14
-9 -26 -15 -29 -9 -2 -13 10 -13 45 1 45 2 47 16 28 8 -11 14 -31 12 -44z
m918 44 c12 -11 12 -19 4 -35 -13 -24 -26 -26 -34 -4 -3 8 -12 12 -18 9 -7 -4
-4 1 7 10 11 9 19 21 18 26 -4 13 6 11 23 -6z m79 5 c3 -5 -1 -10 -10 -10 -9
0 -13 5 -10 10 3 6 8 10 10 10 2 0 7 -4 10 -10z m-1194 -20 c20 -11 26 -54 9
-65 -5 -3 -10 0 -10 7 -1 8 -6 6 -15 -6 -8 -11 -21 -16 -30 -13 -16 7 -21 27
-5 27 5 0 7 7 4 15 -4 8 1 17 10 21 9 3 13 10 10 15 -7 12 3 11 27 -1z m119
-12 c11 -7 10 -8 -7 -5 -31 7 -30 -17 2 -31 14 -6 25 -16 25 -22 0 -16 -18
-12 -29 8 -9 15 -10 13 -11 -10 0 -15 -4 -30 -10 -33 -11 -7 -24 39 -17 59 3
8 -1 17 -8 20 -9 3 -12 12 -9 21 6 16 32 13 64 -7z m-490 2 c0 -5 -2 -10 -4
-10 -3 0 -8 5 -11 10 -3 6 -1 10 4 10 6 0 11 -4 11 -10z m1511 -33 c-10 -9
-11 -8 -5 6 3 10 9 15 12 12 3 -3 0 -11 -7 -18z m39 13 c0 -5 -2 -10 -4 -10
-3 0 -8 5 -11 10 -3 6 -1 10 4 10 6 0 11 -4 11 -10z m-1830 -30 c9 -6 10 -10
3 -10 -6 0 -19 -3 -27 -6 -12 -5 -15 -2 -10 10 7 18 13 20 34 6z m144 -5 c3
-8 1 -15 -4 -15 -6 0 -10 7 -10 15 0 8 2 15 4 15 2 0 6 -7 10 -15z m66 -5 c0
-5 -4 -10 -9 -10 -6 0 -13 5 -16 10 -3 6 1 10 9 10 9 0 16 -4 16 -10z m-199
-33 l-24 -22 19 27 c10 14 21 24 23 22 3 -3 -6 -15 -18 -27z m1342 0 c-3 -5
-9 -3 -14 4 -4 7 -5 17 -2 22 3 5 9 3 14 -4 4 -7 5 -17 2 -22z m-528 3 c3 -5
1 -10 -4 -10 -6 0 -11 5 -11 10 0 6 2 10 4 10 3 0 8 -4 11 -10z m-315 -20 c0
-5 -5 -10 -11 -10 -5 0 -7 5 -4 10 3 6 8 10 11 10 2 0 4 -4 4 -10z m200 0 c0
-5 -4 -10 -10 -10 -5 0 -10 5 -10 10 0 6 5 10 10 10 6 0 10 -4 10 -10z m-607
-14 c4 -11 1 -13 -10 -9 -11 4 -14 2 -9 -5 4 -7 3 -12 -3 -12 -5 0 -9 9 -8 20
1 23 22 27 30 6z m1041 -1 c-4 -8 -8 -15 -10 -15 -2 0 -4 7 -4 15 0 8 4 15 10
15 5 0 7 -7 4 -15z m-534 -10 c5 3 12 -4 15 -16 7 -21 -13 -45 -25 -32 -3 3 1
8 8 10 15 6 16 24 0 21 -6 -2 -13 6 -15 17 -1 11 0 14 3 7 3 -6 9 -10 14 -7z
m-320 -15 c11 -20 -5 -60 -24 -60 -5 0 -6 3 -3 7 4 3 2 12 -4 19 -7 9 -7 19 1
33 13 26 17 26 30 1z m422 -28 c-7 -2 -10 -9 -5 -16 4 -7 0 -3 -9 7 -14 15
-16 23 -6 40 l11 22 11 -24 c8 -19 8 -25 -2 -29z m108 38 c0 -5 -2 -10 -4 -10
-3 0 -8 5 -11 10 -3 6 -1 10 4 10 6 0 11 -4 11 -10z m-815 -10 c3 -5 1 -10 -4
-10 -6 0 -11 5 -11 10 0 6 2 10 4 10 3 0 8 -4 11 -10z m570 0 c3 -5 1 -10 -4
-10 -6 0 -11 5 -11 10 0 6 2 10 4 10 3 0 8 -4 11 -10z m634 -7 c0 -5 -4 -17
-9 -28 -8 -18 -9 -17 -9 8 -1 15 4 27 9 27 6 0 10 -3 9 -7z m-1423 -30 c-2 -2
-11 0 -20 3 -14 5 -15 9 -5 15 12 7 34 -10 25 -18z m1019 -11 c-6 -7 -35 18
-35 31 0 5 9 2 20 -8 11 -10 18 -20 15 -23z m84 4 c-12 -11 -46 -14 -59 -6
-13 8 -13 11 -1 22 12 11 13 10 6 -2 -6 -11 -2 -10 11 3 16 15 20 15 33 2 8
-8 13 -16 10 -19z m106 25 c3 -5 2 -12 -3 -15 -5 -3 -9 1 -9 9 0 17 3 19 12 6z
m-795 -11 c0 -5 -4 -10 -10 -10 -5 0 -10 5 -10 10 0 6 5 10 10 10 6 0 10 -4
10 -10z m275 0 c3 -5 1 -10 -4 -10 -6 0 -11 5 -11 10 0 6 2 10 4 10 3 0 8 -4
11 -10z m705 -11 c0 -5 -4 -9 -10 -9 -5 0 -10 7 -10 16 0 8 5 12 10 9 6 -3 10
-10 10 -16z m-740 7 c0 -3 -4 -8 -10 -11 -5 -3 -10 -1 -10 4 0 6 5 11 10 11 6
0 10 -2 10 -4z m125 -27 c12 -11 14 -19 7 -19 -9 0 -10 -5 -2 -19 14 -27 13
-28 -14 -28 -22 0 -24 3 -19 28 6 30 -5 37 -25 17 -9 -9 -12 -9 -12 0 0 7 5
12 10 12 7 0 7 7 -1 21 -10 19 -9 20 13 14 12 -4 32 -16 43 -26z m655 -14 c0
-8 -4 -15 -10 -15 -5 0 -7 7 -4 15 4 8 8 15 10 15 2 0 4 -7 4 -15z m763 -37
c-2 -5 5 -8 17 -8 17 0 19 -4 14 -27 -9 -37 -13 -40 -25 -23 -7 12 -11 12 -17
3 -6 -9 -13 -7 -26 8 -9 11 -24 18 -31 15 -8 -3 -17 -1 -21 5 -3 6 4 13 16 16
13 3 19 11 16 19 -3 8 -1 14 4 14 6 0 10 7 10 17 0 13 5 11 23 -8 13 -13 22
-27 20 -31z m-1803 36 c0 -8 -19 -13 -24 -6 -3 5 1 9 9 9 8 0 15 -2 15 -3z
m255 -14 c3 -5 2 -10 -4 -10 -5 0 -13 5 -16 10 -3 6 -2 10 4 10 5 0 13 -4 16
-10z m207 -15 c0 -5 -5 -11 -11 -13 -6 -2 -11 4 -11 13 0 9 5 15 11 13 6 -2
11 -8 11 -13z m525 9 c-3 -3 -12 -4 -19 -1 -8 3 -5 6 6 6 11 1 17 -2 13 -5z
m-637 -8 c0 -11 -19 -15 -25 -6 -3 5 1 10 9 10 9 0 16 -2 16 -4z m-90 -28 c0
-6 -6 -5 -15 2 -8 7 -15 14 -15 16 0 2 7 1 15 -2 8 -4 15 -11 15 -16z m863 9
c4 3 7 1 7 -5 0 -6 -4 -14 -10 -17 -5 -3 -10 -2 -10 3 0 5 -7 9 -15 9 -8 0
-15 -5 -15 -10 0 -6 -3 -7 -6 -4 -12 12 18 38 31 27 6 -5 15 -7 18 -3z m787
-3 c0 -8 -5 -12 -10 -9 -6 4 -8 11 -5 16 9 14 15 11 15 -7z m-1600 -3 c0 -6
-4 -13 -10 -16 -5 -3 -10 1 -10 9 0 9 5 16 10 16 6 0 10 -4 10 -9z m-120 -31
c0 -5 -5 -10 -11 -10 -5 0 -7 5 -4 10 3 6 8 10 11 10 2 0 4 -4 4 -10z m-91
-72 c1 -5 -4 -8 -9 -8 -15 0 -32 50 -24 69 5 12 10 7 19 -19 8 -19 14 -38 14
-42z m-233 47 c-3 -8 -1 -15 4 -15 6 0 10 -9 10 -20 0 -22 -20 -26 -38 -8 -17
17 -15 38 3 38 8 0 15 5 15 10 0 6 3 10 6 10 3 0 4 -7 0 -15z m183 -4 c9 -16
7 -56 -4 -88 -6 -16 -41 -17 -51 -1 -5 8 0 9 15 5 20 -5 22 -2 18 19 -2 13 0
24 6 24 6 0 7 3 4 7 -6 6 -57 -42 -57 -53 0 -3 10 -14 22 -24 21 -16 21 -20 8
-44 -17 -32 -36 -30 -58 6 -13 23 -14 29 -2 43 20 24 22 48 3 41 -9 -4 -13 -1
-11 6 3 7 20 18 39 25 19 7 28 12 20 12 -11 1 -10 6 5 20 24 25 31 25 43 2z
m1831 9 c0 -5 -2 -10 -4 -10 -3 0 -8 5 -11 10 -3 6 -1 10 4 10 6 0 11 -4 11
-10z m80 -1 c0 -6 6 -9 14 -6 16 6 10 -29 -7 -40 -6 -4 -8 0 -4 10 3 10 2 17
-3 17 -6 0 -10 -7 -10 -15 0 -9 -9 -15 -25 -15 -28 0 -31 11 -13 40 14 21 48
28 48 9z m-2410 -20 c0 -6 -4 -7 -10 -4 -5 3 -10 11 -10 16 0 6 5 7 10 4 6 -3
10 -11 10 -16z m392 -11 c-8 -8 -9 -4 -5 13 4 13 8 18 11 10 2 -7 -1 -18 -6
-23z m213 13 c-3 -11 -1 -22 4 -25 6 -4 6 -18 0 -38 -6 -23 -6 -29 2 -21 13
13 39 6 39 -10 0 -6 -3 -7 -7 -4 -3 4 -12 2 -18 -3 -21 -17 -42 -1 -54 41 -11
37 -11 42 10 60 28 24 32 24 24 0z m-615 -39 c0 -13 -3 -12 -16 4 -15 18 -15
18 -9 -4 5 -16 3 -22 -7 -20 -22 5 -26 20 -10 39 18 20 42 9 42 -19z m820 28
c0 -5 -5 -10 -11 -10 -5 0 -7 5 -4 10 3 6 8 10 11 10 2 0 4 -4 4 -10z m980 -5
c0 -8 -7 -15 -16 -15 -14 0 -14 3 -4 15 7 8 14 15 16 15 2 0 4 -7 4 -15z
m-2000 -15 c0 -5 -5 -10 -11 -10 -5 0 -7 5 -4 10 3 6 8 10 11 10 2 0 4 -4 4
-10z m1870 -10 c0 -5 -4 -10 -10 -10 -5 0 -10 5 -10 10 0 6 5 10 10 10 6 0 10
-4 10 -10z m655 0 c3 -5 1 -10 -4 -10 -6 0 -11 5 -11 10 0 6 2 10 4 10 3 0 8
-4 11 -10z m-2572 -25 c-3 -9 -8 -14 -10 -11 -3 3 -2 9 2 15 9 16 15 13 8 -4z
m810 -23 c-6 -24 -23 -30 -23 -9 0 13 21 39 26 34 2 -2 1 -13 -3 -25z m207 -2
c0 -5 -4 -10 -10 -10 -5 0 -10 5 -10 10 0 6 5 10 10 10 6 0 10 -4 10 -10z
m1084 -9 c3 -4 17 -6 31 -3 42 8 30 -25 -17 -46 -39 -18 -44 -18 -55 -4 -17
21 -16 32 2 32 8 0 15 7 15 15 0 16 16 20 24 6z m-2094 -26 c0 -9 -9 -15 -22
-15 -21 0 -21 0 -2 15 24 18 24 18 24 0z m-55 -14 c-3 -6 -11 -11 -17 -11 -6
0 -6 6 2 15 14 17 26 13 15 -4z m805 9 c0 -5 -5 -10 -11 -10 -5 0 -7 5 -4 10
3 6 8 10 11 10 2 0 4 -4 4 -10z m57 4 c-3 -3 -12 -4 -19 -1 -8 3 -5 6 6 6 11
1 17 -2 13 -5z m1183 1 c0 -13 -37 -45 -52 -45 -10 0 -18 -7 -18 -17 0 -10 -4
-24 -9 -32 -7 -12 -9 19 -2 61 2 16 81 48 81 33z m-450 -15 c0 -5 -7 -10 -16
-10 -8 0 -12 5 -9 10 3 6 10 10 16 10 5 0 9 -4 9 -10z m460 -40 c0 -5 -8 -10
-17 -10 -15 0 -16 2 -3 10 19 12 20 12 20 0z m-510 -15 c0 16 4 15 30 -10 29
-28 32 -49 5 -38 -8 3 -15 0 -15 -7 0 -6 4 -9 9 -6 15 10 21 -22 10 -51 -7
-19 -13 -23 -18 -15 -4 7 -15 10 -24 6 -9 -3 -23 1 -32 9 -13 14 -13 17 1 31
8 9 11 16 6 16 -15 0 -22 41 -10 63 10 20 11 20 24 2 14 -18 14 -18 14 0z
m618 -2 c-8 -10 -14 -10 -24 -2 -20 16 -18 19 10 17 19 -2 22 -5 14 -15z m76
3 c-19 -14 -19 -14 1 -13 13 1 21 -5 23 -19 3 -18 -2 -21 -28 -20 -20 1 -29 5
-25 14 2 6 0 12 -5 12 -6 0 -10 -5 -10 -12 0 -6 -2 -9 -5 -6 -10 10 8 40 29
48 33 13 42 11 20 -4z m-634 -6 c0 -5 -2 -10 -4 -10 -3 0 -8 5 -11 10 -3 6 -1
10 4 10 6 0 11 -4 11 -10z m-1418 -20 c-2 -8 4 -19 12 -26 13 -9 13 -14 2 -29
-13 -18 -14 -18 -20 2 -4 11 -16 23 -27 26 -18 5 -19 9 -9 27 12 23 47 23 42
0z m493 10 c-3 -5 -12 -10 -18 -10 -7 0 -6 4 3 10 19 12 23 12 15 0z m1256
-13 c-1 -12 -15 -9 -19 4 -3 6 1 10 8 8 6 -3 11 -8 11 -12z m-1041 -11 c0 -3
-4 -8 -10 -11 -5 -3 -10 -1 -10 4 0 6 5 11 10 11 6 0 10 -2 10 -4z m1470 -11
c10 -12 10 -15 -1 -16 -10 0 -11 -2 -1 -6 18 -7 4 -23 -20 -23 -16 0 -18 3 -9
14 8 10 9 16 1 21 -5 3 -10 10 -10 16 0 14 26 11 40 -6z m70 -8 c0 -7 -5 -18
-12 -25 -9 -9 -9 -12 1 -12 7 0 9 -4 6 -10 -3 -5 -10 -10 -15 -10 -10 0 -8 19
3 38 5 7 3 12 -3 12 -6 0 -8 5 -5 10 9 14 25 12 25 -3z m780 9 c0 -3 -4 -8
-10 -11 -5 -3 -10 -1 -10 4 0 6 5 11 10 11 6 0 10 -2 10 -4z m-2638 -13 c-6
-2 -10 -9 -6 -14 3 -5 0 -9 -5 -9 -12 0 -14 13 -4 23 3 4 11 7 17 6 6 0 5 -3
-2 -6z m158 -13 c0 -5 -5 -10 -11 -10 -5 0 -7 5 -4 10 3 6 8 10 11 10 2 0 4
-4 4 -10z m134 -11 c-3 -5 -10 -7 -15 -3 -5 3 -7 10 -3 15 3 5 10 7 15 3 5 -3
7 -10 3 -15z m1416 12 c0 -5 -7 -11 -15 -15 -15 -5 -20 5 -8 17 9 10 23 9 23
-2z m-2263 -16 c0 -8 -4 -15 -9 -15 -4 0 -8 -7 -8 -15 0 -9 -9 -15 -25 -15
l-25 0 32 30 c18 16 33 30 34 30 0 0 1 -7 1 -15z m738 6 c3 -5 1 -12 -5 -16
-5 -3 -10 1 -10 9 0 18 6 21 15 7z m-521 -26 c-4 -8 -8 -15 -10 -15 -2 0 -4 7
-4 15 0 8 4 15 10 15 5 0 7 -7 4 -15z m2616 5 c0 -5 -2 -10 -4 -10 -3 0 -8 5
-11 10 -3 6 -1 10 4 10 6 0 11 -4 11 -10z m-1550 -42 c0 -5 -7 -16 -15 -24
-13 -14 -15 -11 -15 22 0 31 2 35 15 24 8 -7 15 -17 15 -22z m593 12 c3 -10 0
-21 -7 -24 -6 -3 1 -3 15 0 15 3 30 1 33 -5 10 -16 -12 -51 -32 -52 -10 0 -12
-3 -4 -6 20 -8 14 -23 -10 -23 -12 0 -18 3 -15 7 4 3 2 12 -4 20 -9 9 -8 13 0
13 6 0 11 5 11 11 0 5 -5 7 -12 3 -8 -5 -9 -2 -5 10 6 14 3 16 -15 10 -21 -6
-21 -6 -5 10 9 10 17 24 17 32 0 21 27 17 33 -6z m133 -15 c1 -8 -2 -13 -7 -9
-5 3 -9 12 -9 21 0 19 13 9 16 -12z m-1985 1 c5 3 9 -2 9 -10 0 -9 -8 -16 -19
-16 -15 0 -18 5 -13 22 3 12 7 17 10 10 2 -7 8 -10 13 -6z m1786 8 c-3 -3 -12
-4 -19 -1 -8 3 -5 6 6 6 11 1 17 -2 13 -5z m-317 -14 c0 -5 -5 -10 -11 -10 -5
0 -7 5 -4 10 3 6 8 10 11 10 2 0 4 -4 4 -10z m1355 0 c3 -5 1 -10 -4 -10 -6 0
-11 5 -11 10 0 6 2 10 4 10 3 0 8 -4 11 -10z m-1650 -19 c-3 -6 -11 -11 -16
-11 -5 0 -4 6 3 14 14 16 24 13 13 -3z m1950 -11 c3 -5 -1 -10 -10 -10 -9 0
-13 5 -10 10 3 6 8 10 10 10 2 0 7 -4 10 -10z m-1165 -54 c0 -3 -11 -6 -24 -6
-27 0 -42 26 -25 46 9 11 15 10 30 -10 11 -13 19 -27 19 -30z m475 44 c-3 -5
-13 -10 -21 -10 -8 0 -14 5 -14 10 0 6 9 10 21 10 11 0 17 -4 14 -10z m-1270
-18 c0 -18 -20 -15 -23 4 -3 10 1 15 10 12 7 -3 13 -10 13 -16z m595 4 c0 -3
-4 -8 -10 -11 -5 -3 -10 -1 -10 4 0 6 5 11 10 11 6 0 10 -2 10 -4z m-710 -26
c0 -5 -5 -10 -11 -10 -5 0 -7 5 -4 10 3 6 8 10 11 10 2 0 4 -4 4 -10z m1070
-25 c5 3 11 2 14 -3 2 -4 -6 -9 -19 -10 -23 -2 -23 0 -14 43 1 6 4 0 6 -13 2
-12 8 -20 13 -17z m60 25 c0 -5 -5 -10 -11 -10 -5 0 -7 5 -4 10 3 6 8 10 11
10 2 0 4 -4 4 -10z m-1786 -15 c-4 -8 -13 -15 -21 -15 -13 0 -13 3 -3 15 7 8
16 15 21 15 5 0 6 -7 3 -15z m1421 5 c3 -5 1 -10 -4 -10 -6 0 -11 5 -11 10 0
6 2 10 4 10 3 0 8 -4 11 -10z m418 4 c9 -10 -33 -44 -52 -43 -14 1 -14 2 0 6
10 2 19 13 22 24 5 19 18 25 30 13z m-1153 -19 c0 -8 -4 -15 -10 -15 -5 0 -10
7 -10 15 0 8 5 15 10 15 6 0 10 -7 10 -15z m1885 5 c3 -5 1 -10 -4 -10 -6 0
-11 5 -11 10 0 6 2 10 4 10 3 0 8 -4 11 -10z m-2725 -15 c0 -8 -4 -15 -10 -15
-5 0 -10 7 -10 15 0 8 5 15 10 15 6 0 10 -7 10 -15z m69 1 c10 -12 8 -13 -8
-9 -12 3 -21 9 -21 14 0 14 16 11 29 -5z m677 -2 c-5 -13 -1 -15 18 -10 17 4
26 1 31 -11 3 -10 1 -19 -4 -21 -14 -5 -14 -42 -1 -42 6 0 10 7 10 16 0 13 5
11 24 -7 l25 -24 -30 -27 c-17 -16 -40 -28 -52 -29 -12 0 -16 -3 -9 -6 6 -2
12 -10 12 -16 0 -6 -11 0 -24 12 -31 29 -43 96 -21 118 9 8 14 22 11 30 -6 15
0 33 11 33 3 0 2 -7 -1 -16z m783 11 c-3 -2 -14 -6 -25 -8 -10 -1 -25 -6 -31
-10 -7 -5 -13 -4 -13 2 0 5 6 12 13 14 16 7 62 8 56 2z m418 -1 c-3 -3 -12 -4
-19 -1 -8 3 -5 6 6 6 11 1 17 -2 13 -5z m-402 -23 c-3 -6 -11 -8 -17 -5 -6 4
-5 9 3 15 16 10 23 4 14 -10z m52 13 c-3 -3 -12 -4 -19 -1 -8 3 -5 6 6 6 11 1
17 -2 13 -5z m413 -14 c-24 -15 -37 -11 -16 5 11 8 22 12 25 9 3 -3 -1 -9 -9
-14z m-791 -30 c0 -10 -3 -8 -9 5 -12 27 -12 43 0 25 5 -8 9 -22 9 -30z m281
23 c-1 -18 -18 -35 -24 -24 -4 6 -4 16 -1 21 7 12 25 13 25 3z m90 -28 c0 -8
-4 -15 -10 -15 -5 0 -10 7 -10 15 0 8 5 15 10 15 6 0 10 -7 10 -15z m41 2 c-1
-12 -15 -9 -19 4 -3 6 1 10 8 8 6 -3 11 -8 11 -12z m-620 -20 c-10 -9 -11 -8
-5 6 3 10 9 15 12 12 3 -3 0 -11 -7 -18z m-371 9 c0 -2 -7 -9 -15 -16 -13 -11
-14 -10 -9 4 5 14 24 23 24 12z m780 -6 c0 -5 -4 -10 -10 -10 -5 0 -10 5 -10
10 0 6 5 10 10 10 6 0 10 -4 10 -10z m-14 -32 c12 -14 14 -19 4 -13 -12 6 -13
5 -2 -6 17 -18 15 -25 -8 -26 -11 -1 -20 4 -20 10 0 7 -3 22 -6 35 -8 28 7 28
32 0z m-1391 -8 c-3 -5 -13 -10 -21 -10 -8 0 -14 5 -14 10 0 6 9 10 21 10 11
0 17 -4 14 -10z m1190 -31 c-10 -15 -25 -10 -19 6 4 8 10 12 15 9 5 -3 7 -10
4 -15z m812 15 c-3 -3 -12 -4 -19 -1 -8 3 -5 6 6 6 11 1 17 -2 13 -5z m-1187
-42 c0 -5 10 -14 23 -21 21 -11 21 -11 -5 -8 -32 5 -35 0 -10 -19 14 -11 12
-12 -15 -2 -31 12 -45 28 -23 28 6 0 10 4 10 10 0 5 -8 7 -17 4 -15 -5 -16 -4
-3 5 18 13 40 14 40 3z m2200 4 c0 -3 -4 -8 -10 -11 -5 -3 -10 -1 -10 4 0 6 5
11 10 11 6 0 10 -2 10 -4z m-2080 -30 c0 -3 -4 -8 -10 -11 -5 -3 -10 -1 -10 4
0 6 5 11 10 11 6 0 10 -2 10 -4z m-282 -43 c2 -7 -1 -13 -8 -13 -6 0 -9 4 -5
9 3 5 -3 12 -12 15 -15 4 -15 5 1 3 11 -1 21 -8 24 -14z m242 7 c0 -5 -5 -10
-11 -10 -5 0 -7 5 -4 10 3 6 8 10 11 10 2 0 4 -4 4 -10z m-75 -21 c11 -17 -1
-21 -15 -4 -8 9 -8 15 -2 15 6 0 14 -5 17 -11z m260 1 c3 -5 1 -10 -4 -10 -6
0 -11 5 -11 10 0 6 2 10 4 10 3 0 8 -4 11 -10z m-145 -10 c0 -5 -4 -10 -10
-10 -5 0 -10 5 -10 10 0 6 5 10 10 10 6 0 10 -4 10 -10z m-222 -24 c3 -15 1
-16 -17 -6 -12 6 -19 16 -15 21 9 15 28 5 32 -15z m162 14 c0 -5 -4 -10 -10
-10 -5 0 -10 5 -10 10 0 6 5 10 10 10 6 0 10 -4 10 -10z m765 0 c-3 -5 -10
-10 -16 -10 -5 0 -9 5 -9 10 0 6 7 10 16 10 8 0 12 -4 9 -10z m-1740 -10 c3
-5 -3 -10 -15 -10 -12 0 -18 5 -15 10 3 6 10 10 15 10 5 0 12 -4 15 -10z
m1125 0 c0 -5 -5 -10 -11 -10 -5 0 -7 5 -4 10 3 6 8 10 11 10 2 0 4 -4 4 -10z
m536 -37 c-10 -10 -19 5 -10 18 6 11 8 11 12 0 2 -7 1 -15 -2 -18z m41 5 c-3
-8 -6 -5 -6 6 -1 11 2 17 5 13 3 -3 4 -12 1 -19z m-792 2 c-3 -5 -1 -10 5 -10
6 0 8 -5 4 -11 -4 -7 -10 -7 -16 -1 -9 9 -3 32 8 32 3 0 2 -4 -1 -10z m705
-16 c0 -8 -5 -12 -10 -9 -6 4 -8 11 -5 16 9 14 15 11 15 -7z m1608 -11 c-2 -9
-8 -18 -15 -20 -7 -3 -9 3 -6 16 6 25 26 28 21 4z m-2076 -15 c-7 -7 -12 -8
-12 -2 0 14 12 26 19 19 2 -3 -1 -11 -7 -17z m762 6 c4 -10 1 -14 -6 -12 -15
5 -23 28 -10 28 5 0 13 -7 16 -16z m-807 -14 c11 0 13 -6 8 -22 -4 -13 -6 -34
-6 -47 1 -20 -1 -22 -14 -11 -13 10 -19 9 -35 -5 -18 -16 -20 -16 -20 -2 0 10
5 17 11 17 5 0 7 5 4 10 -3 6 1 13 9 16 20 8 21 24 2 24 -7 0 -19 6 -25 14
-10 12 -9 13 7 9 11 -2 23 1 28 8 6 10 9 10 12 1 2 -7 11 -12 19 -12z m2153
12 c0 -13 -12 -22 -22 -16 -10 6 -1 24 13 24 5 0 9 -4 9 -8z m-2005 -20 c-3
-3 -11 0 -18 7 -9 10 -8 11 6 5 10 -3 15 -9 12 -12z m-425 -2 c0 -5 -7 -10
-15 -10 -8 0 -15 5 -15 10 0 6 7 10 15 10 8 0 15 -4 15 -10z m360 0 c0 -5 -4
-10 -10 -10 -5 0 -10 5 -10 10 0 6 5 10 10 10 6 0 10 -4 10 -10z m430 -5 c0
-8 -4 -15 -10 -15 -5 0 -7 7 -4 15 4 8 8 15 10 15 2 0 4 -7 4 -15z m-2090 1
c0 -2 -7 -6 -15 -10 -8 -3 -15 -1 -15 4 0 6 7 10 15 10 8 0 15 -2 15 -4z
m3180 0 c0 -2 -7 -9 -15 -16 -13 -11 -14 -10 -9 4 5 14 24 23 24 12z m-1273
-12 c-3 -3 -12 -4 -19 -1 -8 3 -5 6 6 6 11 1 17 -2 13 -5z m-1380 -26 c-3 -8
-6 -5 -6 6 -1 11 2 17 5 13 3 -3 4 -12 1 -19z m827 1 c-3 -5 -10 -7 -15 -3 -5
3 -7 10 -3 15 3 5 10 7 15 3 5 -3 7 -10 3 -15z m272 6 c-4 -12 0 -14 22 -10
15 3 21 2 15 -1 -15 -7 -17 -40 -3 -49 6 -3 10 -2 10 3 0 5 7 9 15 9 14 0 14
-2 2 -15 -12 -11 -18 -12 -35 -1 -32 20 -55 79 -31 79 6 0 9 -7 5 -15z m521 2
c11 4 14 2 9 -5 -4 -7 -14 -12 -22 -12 -8 0 -14 -5 -14 -12 0 -6 -2 -9 -5 -7
-2 3 -1 16 2 29 4 14 8 19 10 13 3 -7 11 -9 20 -6z m899 -12 c10 -26 -1 -35
-13 -10 -6 14 -7 25 -2 25 5 0 12 -7 15 -15z m-2261 -5 c3 -5 1 -10 -4 -10 -6
0 -11 5 -11 10 0 6 2 10 4 10 3 0 8 -4 11 -10z m2975 0 c0 -5 -5 -10 -11 -10
-5 0 -7 5 -4 10 3 6 8 10 11 10 2 0 4 -4 4 -10z m-3720 -14 c0 -8 4 -16 9 -18
13 -5 24 -48 12 -48 -6 0 -11 -7 -11 -15 0 -8 -5 -15 -11 -15 -7 0 -9 9 -6 21
5 19 4 20 -12 5 -24 -21 -31 -20 -31 5 0 16 -4 19 -17 15 -15 -6 -14 -4 2 14
14 16 20 17 27 8 5 -9 8 -7 8 8 0 11 3 24 7 27 11 12 23 8 23 -7z m1915 5 c10
-17 -12 -21 -25 -6 -10 12 -10 15 3 15 9 0 18 -4 22 -9z m-65 -31 c0 -5 -5
-10 -11 -10 -5 0 -7 5 -4 10 3 6 8 10 11 10 2 0 4 -4 4 -10z m40 -5 c0 -8 5
-15 10 -15 6 0 10 -9 10 -20 0 -15 -7 -20 -25 -20 -22 0 -24 3 -15 19 5 11 7
27 4 35 -3 9 -1 16 5 16 6 0 11 -7 11 -15z m530 -37 c-18 -15 -25 -16 -37 -6
-13 11 -11 16 13 36 25 22 28 23 37 6 8 -13 5 -22 -13 -36z m540 48 c0 -3 -4
-8 -10 -11 -5 -3 -10 -1 -10 4 0 6 5 11 10 11 6 0 10 -2 10 -4z m540 -6 c0 -5
-5 -10 -11 -10 -5 0 -7 5 -4 10 3 6 8 10 11 10 2 0 4 -4 4 -10z m60 -5 c0 -8
-4 -15 -10 -15 -5 0 -10 -9 -10 -21 0 -11 -7 -27 -15 -35 -8 -9 -15 -11 -15
-5 0 6 -7 11 -15 11 -22 0 -18 14 8 25 12 6 22 17 23 25 2 27 4 30 19 30 8 0
15 -7 15 -15z m-2856 -1 c22 -8 20 -37 -3 -58 -18 -16 -49 -13 -62 6 -3 4 -15
-1 -27 -12 -32 -30 -51 -24 -20 6 14 15 37 27 51 27 16 0 27 6 30 18 6 21 8
22 31 13z m831 -4 c3 -5 2 -10 -4 -10 -5 0 -13 5 -16 10 -3 6 -2 10 4 10 5 0
13 -4 16 -10z m-356 -4 c-2 -2 -14 -9 -26 -15 -19 -10 -22 -9 -17 4 4 8 15 15
27 15 11 0 18 -2 16 -4z m1611 -6 c0 -5 -2 -10 -4 -10 -3 0 -8 5 -11 10 -3 6
-1 10 4 10 6 0 11 -4 11 -10z m520 1 c0 -6 -4 -13 -10 -16 -5 -3 -10 1 -10 9
0 9 5 16 10 16 6 0 10 -4 10 -9z m-2520 -17 c0 -8 -4 -12 -10 -9 -5 3 -10 10
-10 16 0 5 5 9 10 9 6 0 10 -7 10 -16z m2789 -40 c-6 -7 -8 -23 -4 -36 5 -18
3 -17 -13 7 -21 33 -19 50 7 40 12 -5 13 -3 4 6 -6 6 -9 18 -6 27 5 12 8 10
15 -8 5 -14 4 -28 -3 -36z m-2092 40 c-3 -3 -12 -4 -19 -1 -8 3 -5 6 6 6 11 1
17 -2 13 -5z m83 -21 c0 -19 -13 -9 -16 12 -1 8 2 13 7 9 5 -3 9 -12 9 -21z
m1480 23 c0 -3 -4 -8 -10 -11 -5 -3 -10 -1 -10 4 0 6 5 11 10 11 6 0 10 -2 10
-4z m-3125 -26 c3 -5 1 -10 -4 -10 -6 0 -11 5 -11 10 0 6 2 10 4 10 3 0 8 -4
11 -10z m636 -13 c-10 -9 -11 -8 -5 6 3 10 9 15 12 12 3 -3 0 -11 -7 -18z
m573 8 c-4 -8 -8 -15 -10 -15 -2 0 -4 7 -4 15 0 8 4 15 10 15 5 0 7 -7 4 -15z
m746 -28 c0 -7 4 -7 12 1 19 19 30 14 18 -8 -6 -11 -15 -18 -21 -15 -5 4 -9
-3 -9 -14 0 -24 -39 -39 -51 -20 -5 8 -4 15 2 17 6 3 6 9 -2 18 -6 7 -9 19 -6
26 3 8 10 2 17 -14 7 -16 17 -28 22 -28 12 0 10 5 -14 46 l-22 37 27 -18 c15
-9 27 -22 27 -28z m-1510 23 c0 -5 -2 -10 -4 -10 -3 0 -8 5 -11 10 -3 6 -1 10
4 10 6 0 11 -4 11 -10z m840 -41 c0 -4 -6 -9 -12 -12 -7 -2 2 -6 20 -9 17 -2
32 -1 32 3 0 4 9 5 20 2 11 -3 20 -12 20 -19 0 -8 9 -13 23 -11 19 2 22 -2 20
-28 0 -16 1 -24 4 -17 6 15 23 6 23 -13 0 -10 -13 -13 -50 -11 -37 1 -50 -2
-50 -12 0 -7 -4 -10 -10 -7 -5 3 -10 19 -10 35 0 24 -6 31 -34 41 -19 7 -33
16 -30 21 8 12 -22 38 -42 38 -14 0 -15 3 -6 12 10 10 17 10 34 -1 20 -12 20
-11 14 16 l-8 28 21 -24 c12 -13 21 -27 21 -32z m2160 41 c0 -5 -5 -10 -11
-10 -5 0 -7 5 -4 10 3 6 8 10 11 10 2 0 4 -4 4 -10z m-1952 -29 c3 -8 -1 -12
-9 -9 -7 2 -15 10 -17 17 -3 8 1 12 9 9 7 -2 15 -10 17 -17z m62 5 c0 -20 -12
-27 -27 -15 -18 16 -16 24 7 26 11 1 20 -4 20 -11z m55 4 c3 -5 1 -10 -4 -10
-6 0 -11 5 -11 10 0 6 2 10 4 10 3 0 8 -4 11 -10z m1605 0 c0 -5 -2 -10 -4
-10 -3 0 -8 5 -11 10 -3 6 -1 10 4 10 6 0 11 -4 11 -10z m-3200 -10 c0 -5 -5
-10 -11 -10 -5 0 -7 5 -4 10 3 6 8 10 11 10 2 0 4 -4 4 -10z m3449 -19 c-3 -6
-10 -7 -18 -2 -7 5 -10 14 -6 21 9 14 29 -2 24 -19z m-2819 10 c0 -6 -4 -13
-10 -16 -5 -3 -10 1 -10 9 0 9 5 16 10 16 6 0 10 -4 10 -9z m419 -24 c0 -9 -2
-9 -6 0 -7 19 -44 -3 -37 -22 3 -8 -3 -20 -15 -27 -12 -7 -21 -23 -21 -36 0
-16 -5 -22 -13 -19 -8 3 -20 1 -28 -4 -10 -6 -4 -9 19 -9 30 0 32 -2 22 -21
-11 -20 -12 -20 -33 -2 -11 10 -18 13 -15 8 4 -6 -5 -15 -18 -22 -19 -9 -24
-8 -24 2 0 7 8 16 18 20 16 6 15 7 -3 18 -11 6 -32 10 -47 8 -31 -3 -41 9 -22
27 8 7 14 8 14 2 0 -5 7 -10 15 -10 8 0 15 7 15 15 0 10 10 15 28 16 15 0 21
3 15 6 -15 6 -18 53 -3 53 6 0 10 -5 10 -10 0 -6 6 -5 14 2 8 7 12 16 9 20 -2
4 3 5 11 2 20 -8 20 -8 1 -44 -9 -17 -13 -30 -10 -30 13 0 20 6 17 14 -2 5 4
6 13 3 8 -4 15 -2 15 3 0 6 -5 10 -10 10 -7 0 -7 7 0 20 6 11 15 18 21 15 5
-4 9 1 9 10 0 13 4 14 20 5 11 -6 20 -16 19 -23z m-1138 10 c-6 -8 -9 -16 -6
-19 3 -3 -1 -11 -10 -18 -13 -11 -13 -8 -4 19 6 17 16 31 21 31 7 0 6 -5 -1
-13z m929 -4 c0 -7 -27 -32 -31 -30 -3 1 2 -4 10 -11 13 -11 13 -14 -1 -28
-17 -17 -48 -13 -48 6 0 6 5 8 10 5 6 -3 10 -1 10 5 0 6 -7 13 -15 16 -24 10
-17 32 13 42 25 8 52 6 52 -5z m-400 3 c0 -3 -4 -8 -10 -11 -5 -3 -10 -1 -10
4 0 6 5 11 10 11 6 0 10 -2 10 -4z m296 -10 c16 -17 18 -26 4 -26 -5 0 -14 9
-20 20 -12 23 -5 26 16 6z m-76 0 c0 -3 -4 -8 -10 -11 -5 -3 -10 -1 -10 4 0 6
5 11 10 11 6 0 10 -2 10 -4z m1570 -30 c0 -4 -7 -6 -15 -2 -8 3 -15 0 -15 -6
0 -6 -3 -9 -6 -6 -3 3 0 15 7 27 10 14 15 17 21 8 4 -7 8 -16 8 -21z m1345 24
c8 -13 -5 -13 -25 0 -13 8 -13 10 2 10 9 0 20 -4 23 -10z m-2505 -38 c0 -30
-61 -104 -68 -83 -2 7 3 20 13 31 9 10 17 31 17 47 1 40 38 45 38 5z m2213 13
c-3 -9 -8 -14 -10 -11 -3 3 -2 9 2 15 9 16 15 13 8 -4z m367 -23 c12 -13 11
-14 -9 -7 -20 6 -22 4 -16 -15 6 -20 5 -21 -15 -10 -16 9 -19 14 -10 20 7 5 8
10 2 14 -5 3 -15 -1 -22 -9 -7 -8 -16 -12 -21 -9 -23 14 33 46 61 36 8 -3 22
-12 30 -20z m-2135 -2 c3 -5 2 -10 -4 -10 -5 0 -13 5 -16 10 -3 6 -2 10 4 10
5 0 13 -4 16 -10z m-879 -18 c16 -10 34 -48 27 -56 -3 -3 -12 -6 -20 -6 -17 0
-17 27 0 33 9 4 9 6 0 6 -6 1 -14 -3 -17 -8 -3 -4 -17 -6 -31 -4 -20 4 -23 8
-14 24 10 19 35 25 55 11z m144 -18 c0 -4 -7 -4 -14 -1 -10 4 -13 1 -10 -7 8
-22 -16 -30 -34 -12 -15 15 -15 16 1 16 9 0 17 7 17 15 0 13 4 14 20 5 11 -6
20 -13 20 -16z m907 -6 c-3 -8 -6 -5 -6 6 -1 11 2 17 5 13 3 -3 4 -12 1 -19z
m539 -26 c9 -18 13 -20 17 -8 3 8 1 16 -6 19 -6 2 7 4 31 5 36 2 42 -1 42 -18
0 -21 -32 -44 -45 -32 -5 4 -5 2 -1 -5 3 -6 2 -14 -3 -17 -5 -3 -12 1 -15 10
-3 8 -10 12 -16 9 -5 -3 -10 2 -10 12 -1 17 -1 17 -15 -1 -14 -19 -52 -15 -40
4 4 6 10 8 14 5 5 -2 6 7 3 21 -4 21 -1 25 14 22 10 -2 24 -14 30 -26z m214
13 c-7 -9 -15 -13 -19 -10 -3 3 1 10 9 15 21 14 24 12 10 -5z m590 5 c0 -5 -5
-10 -11 -10 -5 0 -7 5 -4 10 3 6 8 10 11 10 2 0 4 -4 4 -10z m345 0 c3 -5 -1
-10 -9 -10 -9 0 -16 5 -16 10 0 6 4 10 9 10 6 0 13 -4 16 -10z m219 -26 c9
-23 8 -24 -13 -24 -14 0 -18 5 -14 20 6 24 19 26 27 4z m-3814 -4 c0 -5 -4
-10 -10 -10 -5 0 -10 5 -10 10 0 6 5 10 10 10 6 0 10 -4 10 -10z m1262 -12
c-7 -7 -12 -8 -12 -2 0 6 3 14 7 17 3 4 9 5 12 2 2 -3 -1 -11 -7 -17z m1399
-11 c-8 -8 -11 -7 -11 4 0 20 13 34 18 19 3 -7 -1 -17 -7 -23z m499 18 c0 -9
-6 -12 -16 -8 -13 5 -13 7 -2 14 17 11 18 11 18 -6z m560 5 c0 -5 -5 -10 -11
-10 -5 0 -7 5 -4 10 3 6 8 10 11 10 2 0 4 -4 4 -10z m-1004 -29 c-4 -6 -12
-11 -18 -11 -7 0 -7 4 1 13 6 8 9 16 7 19 -1 3 1 2 7 -2 5 -5 6 -13 3 -19z
m-1975 8 c27 -10 36 -39 12 -39 -7 0 -13 6 -13 13 0 8 -3 9 -8 1 -12 -19 -36
-22 -64 -7 -22 11 -28 11 -29 1 0 -10 -2 -10 -6 0 -12 30 59 50 108 31z m1439
1 c0 -5 -2 -10 -4 -10 -3 0 -8 5 -11 10 -3 6 -1 10 4 10 6 0 11 -4 11 -10z
m417 -10 c-1 -22 -12 -26 -23 -9 -3 6 0 15 7 20 18 12 18 12 16 -11z m333 0
c0 -11 -2 -20 -4 -20 -2 0 -6 9 -9 20 -3 11 -1 20 4 20 5 0 9 -9 9 -20z
m-1890 -20 c0 -5 -4 -10 -10 -10 -5 0 -10 5 -10 10 0 6 5 10 10 10 6 0 10 -4
10 -10z m1406 -22 c-16 -9 -46 -1 -46 13 0 13 14 11 29 -3 10 -11 11 -9 5 7
-7 18 -6 19 10 6 15 -12 15 -16 2 -23z m-1531 2 c-3 -5 -10 -10 -16 -10 -5 0
-9 5 -9 10 0 6 7 10 16 10 8 0 12 -4 9 -10z m745 6 c0 -3 -4 -8 -10 -11 -5 -3
-10 -1 -10 4 0 6 5 11 10 11 6 0 10 -2 10 -4z m165 -6 c3 -5 2 -10 -4 -10 -5
0 -13 5 -16 10 -3 6 -2 10 4 10 5 0 13 -4 16 -10z m375 -2 c0 -7 -4 -19 -9
-27 -7 -10 -9 -7 -8 12 2 26 17 39 17 15z m348 0 c-3 -7 -13 -15 -24 -17 -16
-3 -17 -1 -5 13 16 19 34 21 29 4z m32 2 c0 -5 -4 -10 -10 -10 -5 0 -10 5 -10
10 0 6 5 10 10 10 6 0 10 -4 10 -10z m118 -20 c3 -9 6 -9 13 1 7 11 9 10 9 -3
0 -21 -4 -22 -31 -8 -16 9 -19 7 -19 -9 0 -20 -32 -37 -50 -26 -20 12 -10 27
15 23 25 -5 34 5 15 17 -5 3 -10 10 -10 15 0 13 53 5 58 -10z m-2405 -10 c3
-11 2 -20 -3 -20 -4 0 -10 9 -13 20 -3 11 -2 20 3 20 4 0 10 -9 13 -20z m396
-15 c1 6 15 12 32 13 22 2 28 -1 23 -10 -5 -10 -4 -10 5 -2 27 25 172 -20 154
-49 -4 -6 0 -8 11 -4 14 6 15 3 6 -13 -6 -11 -20 -20 -30 -20 -11 0 -20 -5
-20 -11 0 -5 5 -7 10 -4 6 3 10 -1 10 -9 0 -8 -4 -18 -10 -21 -5 -3 -10 -1
-10 4 0 16 -36 13 -50 -4 -11 -13 -10 -14 3 -10 8 4 18 2 22 -4 9 -15 -16 -14
-58 4 -37 15 -47 12 -47 -15 0 -10 -7 -23 -16 -31 -13 -10 -17 -10 -24 1 -4 7
-15 10 -24 7 -12 -5 -15 0 -14 21 1 15 6 33 11 40 6 7 6 12 -1 12 -5 0 -8 9
-5 20 5 17 0 20 -26 20 -24 0 -31 -4 -31 -20 0 -11 -5 -20 -10 -20 -6 0 -15
-11 -21 -24 -9 -18 -7 -30 5 -55 16 -29 16 -31 -2 -31 -10 0 -23 -5 -30 -12
-9 -9 -18 -9 -37 0 -27 12 -50 8 -40 -8 6 -10 -23 -22 -36 -14 -5 3 -7 10 -4
15 4 5 2 9 -4 9 -6 0 -5 16 3 43 10 33 17 42 34 41 11 0 19 3 16 8 -9 14 -13
61 -8 79 3 11 12 15 24 12 11 -3 21 0 21 6 3 26 4 30 12 37 4 4 7 0 7 -9 0
-12 9 -17 30 -17 17 0 30 5 30 10 0 6 -5 10 -12 10 -9 0 -9 3 1 13 10 10 15 8
27 -7 8 -11 14 -14 14 -8 0 7 10 16 23 21 16 6 24 4 29 -8 4 -9 7 -11 7 -6z
m971 9 c0 -9 -5 -14 -12 -12 -18 6 -21 28 -4 28 9 0 16 -7 16 -16z m-713 -9
c0 -9 -4 -11 -11 -6 -6 5 -20 11 -31 14 -14 3 -10 5 11 6 21 1 31 -4 31 -14z
m673 -5 c0 -5 -4 -10 -10 -10 -5 0 -10 5 -10 10 0 6 5 10 10 10 6 0 10 -4 10
-10z m-505 -10 c-4 -6 5 -10 19 -10 14 0 26 -5 26 -11 0 -5 5 -7 10 -4 6 3 10
1 10 -5 0 -7 8 -9 21 -5 16 5 20 3 17 -6 -5 -16 -28 -19 -45 -6 -9 6 -13 6
-13 -2 0 -14 -55 -14 -81 0 -21 11 -17 31 5 23 8 -3 16 4 19 15 3 12 8 21 12
21 3 0 3 -4 0 -10z m665 -5 c7 -9 8 -15 2 -15 -5 0 -12 7 -16 15 -3 8 -4 15
-2 15 2 0 9 -7 16 -15z m-110 -16 c0 -4 -7 -6 -15 -3 -8 4 -15 10 -15 15 0 4
7 6 15 3 8 -4 15 -10 15 -15z m-1460 -4 c0 -12 -19 -12 -23 0 -4 9 -1 12 9 8
7 -3 14 -7 14 -8z m1423 -18 c15 -15 21 -16 33 -6 12 10 14 3 14 -40 0 -30 -4
-50 -9 -46 -5 3 -12 2 -14 -2 -3 -5 -20 -7 -39 -6 -45 2 -45 2 -25 14 9 5 17
16 17 24 0 8 8 19 18 24 9 6 12 11 6 11 -6 0 -19 -9 -28 -19 -10 -11 -25 -17
-37 -14 -10 3 -19 0 -19 -6 0 -6 5 -11 12 -11 6 0 9 -2 6 -5 -3 -3 -24 2 -47
11 -39 15 -70 49 -57 62 3 3 6 0 6 -7 0 -7 4 -10 9 -7 5 3 14 0 20 -7 20 -25
77 -8 67 20 -14 35 35 42 67 10z m967 -37 c5 -18 5 -30 -1 -30 -5 0 -9 -9 -9
-20 0 -11 -4 -20 -9 -20 -27 0 -36 68 -12 86 10 8 11 13 3 18 -7 4 -12 12 -12
17 0 19 31 -21 40 -51z m-1110 40 c0 -5 -2 -10 -4 -10 -3 0 -8 5 -11 10 -3 6
-1 10 4 10 6 0 11 -4 11 -10z m347 -23 c4 -8 15 -16 24 -19 11 -4 15 -15 11
-37 -2 -19 0 -31 7 -31 6 0 11 5 11 12 0 6 3 8 7 4 10 -10 -26 -36 -48 -36
-10 0 -21 9 -24 20 -7 22 -35 26 -53 8 -9 -9 -12 -6 -12 16 0 18 -4 25 -11 20
-7 -4 -10 -1 -7 7 3 8 12 13 21 11 10 -2 18 8 22 28 6 25 9 28 25 20 11 -6 23
-16 27 -23z m-77 13 c13 -8 13 -10 -2 -10 -9 0 -20 5 -23 10 -8 13 5 13 25 0z
m-1366 -26 c3 -8 10 -12 16 -9 6 4 10 -5 10 -20 0 -17 -5 -25 -12 -22 -7 2
-11 12 -10 22 3 17 2 17 -15 4 -16 -13 -17 -13 -4 4 9 11 10 17 2 17 -6 0 -11
5 -11 10 0 16 17 12 24 -6z m1876 6 c0 -5 -5 -10 -11 -10 -5 0 -7 5 -4 10 3 6
8 10 11 10 2 0 4 -4 4 -10z m380 -15 c10 6 12 4 7 -9 -5 -11 2 -26 21 -44 15
-15 32 -39 39 -53 10 -24 8 -27 -20 -45 -18 -10 -34 -19 -37 -20 -7 -1 -43
-16 -54 -22 -5 -3 -7 4 -4 15 7 26 -9 54 -26 47 -7 -3 -18 2 -25 10 -10 12 -9
14 8 9 15 -4 22 1 27 21 3 14 12 30 20 37 11 9 14 7 14 -10 0 -11 -4 -21 -10
-21 -5 0 -10 -5 -10 -11 0 -8 4 -8 14 0 11 9 15 9 19 -1 11 -25 -2 57 -12 85
-15 38 -14 45 2 22 9 -11 19 -15 27 -10z m-1690 5 c0 -6 -7 -13 -15 -16 -8 -4
-13 -10 -10 -14 6 -10 -21 -21 -29 -12 -7 6 33 50 47 51 4 1 7 -4 7 -9z m2040
0 c0 -5 -4 -10 -10 -10 -5 0 -10 5 -10 10 0 6 5 10 10 10 6 0 10 -4 10 -10z
m-1995 -10 c3 -5 -1 -10 -9 -10 -9 0 -16 5 -16 10 0 6 4 10 9 10 6 0 13 -4 16
-10z m195 -4 c0 -3 -4 -8 -10 -11 -5 -3 -10 -1 -10 4 0 6 5 11 10 11 6 0 10
-2 10 -4z m96 -11 c-3 -8 -1 -15 4 -15 6 0 10 7 10 15 0 12 7 14 28 9 39 -10
74 -35 68 -50 -3 -7 0 -15 7 -18 7 -3 -1 -2 -18 1 -16 3 -33 10 -36 16 -4 5
-10 3 -15 -5 -8 -13 -16 -12 -59 8 -27 13 -44 24 -37 24 6 0 12 7 12 15 0 9 9
15 21 15 15 0 19 -5 15 -15z m-217 -4 c9 -6 5 -8 -13 -8 -14 0 -26 3 -26 8 0
11 21 11 39 0z m-492 -33 c-3 -8 -6 -5 -6 6 -1 11 2 17 5 13 3 -3 4 -12 1 -19z
m-432 2 c3 -5 1 -10 -4 -10 -6 0 -11 5 -11 10 0 6 2 10 4 10 3 0 8 -4 11 -10z
m915 1 c0 -9 -34 -21 -60 -21 -9 1 -5 7 10 15 29 16 50 19 50 6z m-150 -16 c0
-8 -4 -15 -10 -15 -5 0 -10 7 -10 15 0 8 5 15 10 15 6 0 10 -7 10 -15z m1028
-37 c-11 -22 -22 -24 -14 -3 4 10 -2 19 -17 24 l-22 9 25 10 c20 8 26 6 31 -7
4 -9 2 -24 -3 -33z m-1758 10 c0 -13 -23 -5 -28 10 -2 7 2 10 12 6 9 -3 16
-11 16 -16z m1360 12 c0 -5 -5 -10 -11 -10 -5 0 -7 5 -4 10 3 6 8 10 11 10 2
0 4 -4 4 -10z m933 -37 c-3 -7 -15 -13 -26 -13 -16 0 -18 3 -9 12 7 7 12 21
12 32 0 19 0 19 14 1 8 -11 12 -25 9 -32z m337 27 c0 -5 -2 -10 -4 -10 -3 0
-8 5 -11 10 -3 6 -1 10 4 10 6 0 11 -4 11 -10z m-577 -21 c-4 -15 -8 -17 -14
-8 -6 11 4 28 18 29 0 0 -1 -9 -4 -21z m-353 1 c0 -5 -4 -10 -10 -10 -5 0 -10
5 -10 10 0 6 5 10 10 10 6 0 10 -4 10 -10z m-560 -14 c0 -7 -11 -21 -25 -30
-14 -9 -25 -12 -25 -6 0 5 4 10 9 10 5 0 11 9 14 20 6 23 27 27 27 6z m347 8
c-3 -3 -12 -4 -19 -1 -8 3 -5 6 6 6 11 1 17 -2 13 -5z m709 -19 c-1 -29 -26
-34 -26 -6 0 11 6 22 13 24 6 3 13 6 13 6 1 1 1 -10 0 -24z m-661 -5 c18 -7
19 -8 3 -15 -22 -9 -51 1 -43 15 7 12 13 12 40 0z m-1085 -4 c0 -3 -4 -8 -10
-11 -5 -3 -10 -1 -10 4 0 6 5 11 10 11 6 0 10 -2 10 -4z m1710 -6 c0 -5 -2
-10 -4 -10 -3 0 -8 5 -11 10 -3 6 -1 10 4 10 6 0 11 -4 11 -10z m140 -5 c0 -8
-4 -15 -10 -15 -5 0 -10 7 -10 15 0 8 5 15 10 15 6 0 10 -7 10 -15z m-890 -5
c0 -5 -4 -10 -10 -10 -5 0 -10 5 -10 10 0 6 5 10 10 10 6 0 10 -4 10 -10z
m855 0 c3 -5 -1 -10 -10 -10 -9 0 -13 5 -10 10 3 6 8 10 10 10 2 0 7 -4 10
-10z m287 -22 c8 -13 12 -31 10 -41 -4 -18 -5 -18 -18 1 -8 13 -21 18 -33 15
-15 -4 -18 0 -14 21 7 33 35 34 55 4z m-2546 -4 c-3 -9 -6 -20 -6 -25 0 -5 -7
-9 -15 -9 -18 0 -19 4 -3 30 15 24 33 27 24 4z m2144 12 c0 -3 -4 -8 -10 -11
-5 -3 -10 -1 -10 4 0 6 5 11 10 11 6 0 10 -2 10 -4z m78 -26 c3 -20 1 -22 -10
-12 -8 6 -18 9 -21 5 -4 -3 -7 -1 -7 6 0 7 -4 10 -9 7 -5 -3 -11 0 -14 8 -4 9
4 13 26 12 26 -1 33 -6 35 -26z m-535 1 c2 -10 -4 -29 -14 -42 -20 -26 -25
-44 -9 -34 13 8 13 -1 -1 -27 -8 -16 -8 -19 1 -13 8 5 11 3 8 -5 -11 -33 -25
-15 -36 43 -14 76 -15 90 -4 83 4 -2 14 -1 22 5 22 13 27 11 33 -10z m-1333
-17 c23 -42 -8 -73 -53 -52 -14 7 -15 13 -7 29 9 15 15 17 30 9 21 -11 29 3
10 15 -12 7 -13 25 -2 25 5 0 15 -12 22 -26z m1978 6 c7 -11 18 -20 26 -20 20
0 45 -32 29 -37 -7 -3 -13 -14 -13 -25 0 -17 -3 -18 -15 -8 -8 6 -19 9 -25 5
-6 -3 -10 3 -10 14 0 12 5 21 10 21 6 0 10 7 10 15 0 19 -19 19 -45 1 -13 -8
-27 -10 -40 -5 -18 7 -18 8 5 9 14 1 19 4 13 7 -22 8 -15 35 7 28 11 -4 20 -2
20 4 0 17 14 13 28 -9z m122 10 c0 -5 -2 -10 -4 -10 -3 0 -8 5 -11 10 -3 6 -1
10 4 10 6 0 11 -4 11 -10z m-59 -33 c-8 -8 -11 -7 -11 4 0 20 13 34 18 19 3
-7 -1 -17 -7 -23z m-2151 2 c0 -5 -7 -9 -15 -9 -15 0 -20 12 -9 23 8 8 24 -1
24 -14z m1550 11 c0 -5 -4 -10 -9 -10 -6 0 -13 5 -16 10 -3 6 1 10 9 10 9 0
16 -4 16 -10z m-1243 -68 c-7 -9 -13 -10 -24 -1 -11 10 -11 14 -1 20 7 5 14
13 14 19 3 24 6 24 13 0 4 -14 3 -31 -2 -38z m1430 21 c-8 -15 -12 -33 -10
-40 2 -6 -4 -10 -14 -9 -12 2 -19 13 -21 33 -3 26 1 32 25 41 36 12 38 10 20
-25z m-1474 8 c-3 -12 -13 -19 -24 -18 -18 1 -18 3 3 19 13 10 24 18 25 18 0
0 -1 -9 -4 -19z m1277 0 c0 -44 -28 -68 -45 -40 -4 6 0 9 10 7 10 -2 20 3 22
9 7 21 -25 26 -52 9 -31 -20 -36 -20 -28 0 6 17 31 29 68 32 19 1 25 -3 25
-17z m-1610 -19 c0 -4 -7 -18 -16 -31 -13 -18 -18 -20 -25 -10 -5 8 -1 20 9
31 18 18 32 23 32 10z m154 -29 c6 -15 -50 -73 -71 -73 -7 0 -17 9 -22 19 -8
14 -7 20 4 25 8 3 15 14 15 24 0 14 8 18 34 19 22 1 37 -4 40 -14z m1402 -8
c10 -8 14 -15 7 -15 -6 0 -15 5 -18 10 -5 8 -11 7 -21 -1 -14 -11 -20 1 -7 14
10 10 17 9 39 -8z m-1106 -5 c0 -5 -7 -10 -15 -10 -8 0 -15 5 -15 10 0 6 7 10
15 10 8 0 15 -4 15 -10z m920 -12 c0 -6 -6 -5 -15 2 -8 7 -15 14 -15 16 0 2 7
1 15 -2 8 -4 15 -11 15 -16z m850 2 c0 -5 7 -10 16 -10 9 0 14 -7 12 -17 -1
-10 1 -24 6 -31 4 -7 6 -16 3 -19 -10 -9 -27 8 -46 48 -15 31 -16 39 -5 39 8
0 14 -4 14 -10z m-2180 -4 c0 -3 -4 -8 -10 -11 -5 -3 -10 -1 -10 4 0 6 5 11
10 11 6 0 10 -2 10 -4z m1780 -23 c13 -2 28 4 36 14 12 17 13 17 10 0 -3 -21
-18 -38 -37 -40 -8 -2 -19 -6 -26 -10 -15 -9 -21 1 -21 37 0 18 3 23 8 15 5
-7 18 -14 30 -16z m360 6 c0 -5 -9 -9 -20 -9 -17 0 -19 2 -8 14 13 14 28 12
28 -5z m-23 -41 c-3 -8 -6 -5 -6 6 -1 11 2 17 5 13 3 -3 4 -12 1 -19z m-887
-13 c-7 -8 -16 -12 -21 -9 -13 8 -1 24 18 24 13 0 13 -3 3 -15z m715 -15 c3
-5 2 -10 -4 -10 -5 0 -13 5 -16 10 -3 6 -2 10 4 10 5 0 13 -4 16 -10z m125
-11 c0 -5 -4 -9 -10 -9 -5 0 -10 7 -10 16 0 8 5 12 10 9 6 -3 10 -10 10 -16z
m180 -50 c0 -5 -4 -9 -10 -9 -5 0 -10 7 -10 16 0 8 5 12 10 9 6 -3 10 -10 10
-16z m-173 -15 c-3 -3 -12 -4 -19 -1 -8 3 -5 6 6 6 11 1 17 -2 13 -5z m-1927
-14 c0 -5 -5 -10 -11 -10 -5 0 -7 5 -4 10 3 6 8 10 11 10 2 0 4 -4 4 -10z
m-80 -90 c0 -5 -7 -7 -15 -4 -8 4 -15 8 -15 10 0 2 7 4 15 4 8 0 15 -4 15 -10z"/>
<path d="M3640 3612 c0 -10 21 -32 32 -32 16 0 8 19 -12 30 -11 6 -20 7 -20 2z"/>
<path d="M2690 3250 c0 -5 5 -10 11 -10 5 0 7 5 4 10 -3 6 -8 10 -11 10 -2 0
-4 -4 -4 -10z"/>
<path d="M2137 2979 c7 -7 15 -10 18 -7 3 3 -2 9 -12 12 -14 6 -15 5 -6 -5z"/>
<path d="M2190 2960 c0 -5 5 -10 11 -10 5 0 7 5 4 10 -3 6 -8 10 -11 10 -2 0
-4 -4 -4 -10z"/>
<path d="M2116 2452 c-2 -4 9 -9 25 -10 19 -2 28 2 24 8 -7 12 -42 13 -49 2z"/>
<path d="M2140 2410 c0 -5 5 -10 10 -10 6 0 10 5 10 10 0 6 -4 10 -10 10 -5 0
-10 -4 -10 -10z"/>
<path d="M1246 2204 c-8 -20 0 -32 14 -18 5 5 5 15 1 22 -6 11 -10 10 -15 -4z"/>
<path d="M1300 2210 c-9 -6 -10 -10 -3 -10 6 0 15 5 18 10 8 12 4 12 -15 0z"/>
<path d="M1316 2151 c-3 -5 1 -11 9 -15 9 -3 15 0 15 9 0 16 -16 20 -24 6z"/>
<path d="M1070 2061 c0 -6 4 -13 10 -16 6 -3 7 1 4 9 -7 18 -14 21 -14 7z"/>
<path d="M2259 2135 c0 -5 -2 -18 -4 -27 -2 -10 0 -18 5 -18 13 0 19 26 9 41
-5 8 -9 10 -10 4z"/>
<path d="M3265 2020 c3 -5 1 -10 -5 -10 -8 0 -8 -6 0 -20 13 -23 35 -27 26 -4
-3 8 -2 12 3 9 5 -3 12 -1 16 5 3 5 -1 10 -9 10 -9 0 -16 5 -16 10 0 6 -5 10
-11 10 -5 0 -7 -4 -4 -10z"/>
<path d="M2340 4236 c0 -8 4 -17 9 -20 5 -4 7 3 4 14 -6 23 -13 26 -13 6z"/>
<path d="M3088 4220 c10 -12 18 -16 21 -9 2 6 -3 15 -10 20 -24 15 -29 10 -11
-11z"/>
<path d="M2196 4206 c3 -9 11 -16 16 -16 13 0 5 23 -10 28 -7 2 -10 -2 -6 -12z"/>
<path d="M2246 4212 c-2 -4 -1 -14 5 -22 7 -12 9 -10 9 8 0 23 -5 28 -14 14z"/>
<path d="M2459 4211 c0 -3 -2 -13 -4 -22 -2 -11 3 -16 14 -14 9 2 22 4 29 4
22 2 12 29 -13 33 -14 3 -25 2 -26 -1z"/>
<path d="M3180 4195 c7 -9 15 -13 17 -11 7 7 -7 26 -19 26 -6 0 -6 -6 2 -15z"/>
<path d="M1887 4053 c6 -16 5 -16 -10 -4 -10 8 -17 9 -17 3 0 -15 16 -23 33
-16 16 6 12 34 -4 34 -4 0 -5 -8 -2 -17z"/>
<path d="M1846 4025 c4 -8 11 -15 16 -15 6 0 5 6 -2 15 -7 8 -14 15 -16 15 -2
0 -1 -7 2 -15z"/>
<path d="M1818 3985 c2 -14 8 -22 13 -19 5 3 9 -2 9 -12 0 -13 3 -14 15 -4 13
11 12 16 -10 36 -32 30 -33 30 -27 -1z"/>
<path d="M1851 3914 c0 -11 3 -14 6 -6 3 7 2 16 -1 19 -3 4 -6 -2 -5 -13z"/>
<path d="M1547 3814 c-11 -11 -8 -26 3 -19 6 3 10 -4 10 -16 0 -17 3 -20 11
-12 6 6 9 19 7 29 -3 19 -20 28 -31 18z"/>
<path d="M1480 3772 c0 -4 9 -8 20 -9 11 -1 20 2 20 8 0 5 -9 9 -20 9 -11 0
-20 -4 -20 -8z"/>
<path d="M1190 3640 c-12 -8 -11 -10 8 -10 12 0 22 5 22 10 0 13 -11 13 -30 0z"/>
<path d="M1165 3553 c12 -14 17 -15 27 -4 11 11 10 13 -3 8 -9 -3 -22 -1 -28
4 -6 5 -4 1 4 -8z"/>
<path d="M1061 3483 c-9 -10 -10 -18 -3 -25 7 -7 12 -3 17 12 9 27 4 32 -14
13z"/>
<path d="M975 3390 c-3 -5 1 -10 10 -10 9 0 13 5 10 10 -3 6 -8 10 -10 10 -2
0 -7 -4 -10 -10z"/>
<path d="M4460 3390 c0 -5 7 -7 15 -4 8 4 15 8 15 10 0 2 -7 4 -15 4 -8 0 -15
-4 -15 -10z"/>
<path d="M4413 3268 c-28 -13 -28 -21 -5 -44 16 -17 17 -16 23 12 6 27 7 27 8
4 1 -22 3 -23 14 -9 7 9 19 14 27 12 8 -3 4 5 -10 16 -29 23 -27 23 -57 9z"/>
<path d="M4430 3171 c-9 -18 -8 -21 9 -18 29 4 34 12 17 26 -12 10 -17 8 -26
-8z"/>
<path d="M840 3050 c0 -5 5 -10 11 -10 5 0 7 5 4 10 -3 6 -8 10 -11 10 -2 0
-4 -4 -4 -10z"/>
<path d="M4585 2570 c-3 -5 -1 -10 4 -10 6 0 11 5 11 10 0 6 -2 10 -4 10 -3 0
-8 -4 -11 -10z"/>
<path d="M4585 2400 c-3 -5 1 -10 10 -10 9 0 13 5 10 10 -3 6 -8 10 -10 10 -2
0 -7 -4 -10 -10z"/>
<path d="M3945 2340 c10 -11 25 -20 34 -20 12 0 9 6 -9 20 -33 26 -48 26 -25
0z"/>
<path d="M3935 2279 c-10 -15 3 -25 16 -12 7 7 7 13 1 17 -6 3 -14 1 -17 -5z"/>
<path d="M4384 2243 c2 -10 7 -17 12 -15 13 3 11 25 -3 29 -6 2 -10 -4 -9 -14z"/>
<path d="M4465 2210 c-3 -5 -1 -10 4 -10 6 0 11 5 11 10 0 6 -2 10 -4 10 -3 0
-8 -4 -11 -10z"/>
<path d="M665 2179 c-4 -6 -5 -13 -2 -16 7 -7 27 6 27 18 0 12 -17 12 -25 -2z"/>
<path d="M4135 2150 c-3 -5 -3 -14 0 -20 3 -5 1 -10 -4 -10 -6 0 -11 -4 -11
-8 0 -5 6 -9 13 -9 6 0 23 -3 37 -7 l25 -8 -23 17 c-17 13 -21 20 -13 28 6 6
11 15 11 19 0 11 -28 10 -35 -2z"/>
<path d="M3840 2044 c0 -8 5 -12 10 -9 6 3 10 10 10 16 0 5 -4 9 -10 9 -5 0
-10 -7 -10 -16z"/>
<path d="M3718 2023 c7 -3 16 -2 19 1 4 3 -2 6 -13 5 -11 0 -14 -3 -6 -6z"/>
<path d="M1720 1949 c0 -14 6 -17 30 -14 24 3 30 0 28 -13 -2 -9 5 -18 15 -20
10 -2 17 3 17 13 0 9 -4 14 -9 11 -5 -4 -7 3 -4 13 4 16 0 19 -21 17 -14 -2
-26 0 -26 4 0 4 -7 7 -15 7 -8 0 -15 -8 -15 -18z"/>
<path d="M1875 1900 c-3 -5 -1 -10 4 -10 6 0 11 5 11 10 0 6 -2 10 -4 10 -3 0
-8 -4 -11 -10z"/>
<path d="M1712 1869 c2 -6 8 -10 13 -10 5 0 11 4 13 10 2 6 -4 11 -13 11 -9 0
-15 -5 -13 -11z"/>
<path d="M1846 1851 c-3 -5 1 -11 9 -15 8 -3 15 -1 15 4 0 13 -18 22 -24 11z"/>
<path d="M3370 1791 c0 -5 5 -13 10 -16 6 -3 10 -2 10 4 0 5 -4 13 -10 16 -5
3 -10 2 -10 -4z"/>
<path d="M1440 1754 c-12 -31 -13 -44 -2 -44 12 0 42 39 42 55 0 25 -30 17
-40 -11z"/>
<path d="M779 1733 c-1 -5 -1 -12 0 -17 1 -4 -4 -14 -10 -22 -9 -11 -8 -14 4
-14 8 0 17 -6 20 -12 2 -7 8 -9 13 -5 4 4 2 17 -5 29 -8 14 -9 18 -1 13 9 -6
9 -2 1 14 -12 22 -20 27 -22 14z"/>
<path d="M2066 1713 c-3 -4 -6 -17 -6 -30 0 -16 -6 -23 -19 -23 -14 0 -18 -5
-14 -21 3 -12 11 -18 19 -15 8 3 14 2 14 -2 0 -4 10 -9 22 -9 15 -2 18 1 10 6
-10 6 -10 14 -3 34 11 27 40 38 42 15 0 -7 5 -3 11 10 6 12 9 24 7 26 -8 7
-77 14 -83 9z"/>
<path d="M1680 1649 c0 -5 5 -7 10 -4 6 3 10 -1 10 -10 0 -12 5 -15 16 -11 9
3 20 6 26 6 6 0 6 6 -2 15 -14 17 -60 20 -60 4z"/>
<path d="M1962 1641 c-11 -7 -11 -9 0 -13 7 -3 19 1 26 8 10 11 10 14 0 14 -7
0 -19 -4 -26 -9z"/>
<path d="M2171 1628 c1 -16 17 -56 18 -45 1 4 10 3 21 -3 18 -9 20 -8 20 15 0
18 -7 28 -26 35 -32 13 -34 13 -33 -2z"/>
<path d="M1760 1440 c0 -5 -6 -7 -12 -5 -12 5 -68 -35 -68 -49 0 -3 11 -6 25
-6 14 0 25 4 25 8 0 5 20 8 44 7 37 -2 43 1 39 14 -10 29 -53 54 -53 31z"/>
</g>
</svg>
